<?xml version="1.0" encoding="UTF-8"?>
<svg width="790px" height="116px" viewBox="0 0 790 116" version="1.1" xmlns="http://www.w3.org/2000/svg" xmlns:xlink="http://www.w3.org/1999/xlink"
  role="img" aria-labelledby="bonobos-logo-dark-title bonobos-logo-dark-desc">
    <!-- Generator: Sketch 50.2 (55047) - http://www.bohemiancoding.com/sketch -->
    <title id="bonobos-logo-dark-title">Bonobos</title>
    <desc id="bonobos-logo-dark-desc">Bonobos logo</desc>
    <defs></defs>
    <g id="bonobos-logo-dark" stroke="none" stroke-width="1" fill="none" fill-rule="evenodd">
        <g id="Logo/Bonobos/Dark" transform="translate(0.000000, 2.000000)" fill="#232323">
            <g id="Page-1">
                <path d="M45.147236,2.00899821 L0.000316,2.00899821 L0.000316,110.195677 L47.740016,110.195677 C74.965786,110.195677 89.455966,99.4538567 89.455966,79.2069779 C89.455966,68.2338147 82.134246,59.0385474 70.161796,54.9424228 C80.152136,51.233737 86.253306,42.5011549 86.253306,31.9914774 C86.253306,12.4410278 71.915596,2.00899821 45.147236,2.00899821 Z M22.726246,21.7907904 L44.537356,21.7907904 C54.527696,21.7907904 62.535926,24.0329723 62.535926,33.5372301 C62.535926,43.505774 54.680166,45.5918598 44.537356,45.5918598 L22.726246,45.5918598 L22.726246,21.7907904 Z M22.726246,65.9932338 L46.672726,65.9932338 C58.493496,65.9932338 65.814426,68.5436057 65.814426,78.1255113 C65.814426,87.7850648 58.493496,90.4122841 46.672726,90.4122841 L22.726246,90.4122841 L22.726246,65.9932338 Z M158.129876,-0.000240148011 C124.726306,-0.000240148011 101.237236,23.7231814 101.237236,56.1023377 C101.237236,88.4806936 124.726306,112.204916 158.129876,112.204916 C191.456026,112.204916 215.021726,88.4806936 215.021726,56.1023377 C215.021726,23.7231814 191.456026,-0.000240148011 158.129876,-0.000240148011 Z M158.129876,20.7093238 C177.423256,20.7093238 191.226926,35.0829828 191.226926,56.1023377 C191.226926,77.1216926 177.423256,91.4945511 158.129876,91.4945511 C138.910756,91.4945511 124.954616,77.1216926 124.954616,56.1023377 C124.954616,35.0829828 138.910756,20.7093238 158.129876,20.7093238 Z M328.461776,110.195677 L328.461776,2.00899821 L305.582586,2.00899821 L305.582586,70.8618345 L253.265626,2.00899821 L230.921266,2.00899821 L230.921266,110.195677 L253.799666,110.195677 L253.799666,40.8009069 L306.345726,110.195677 L328.461776,110.195677 Z M401.482266,-0.000240148011 C368.078696,-0.000240148011 344.590416,23.7231814 344.590416,56.1023377 C344.590416,88.4806936 368.078696,112.204916 401.482266,112.204916 C434.809206,112.204916 458.374116,88.4806936 458.374116,56.1023377 C458.374116,23.7231814 434.809206,-0.000240148011 401.482266,-0.000240148011 Z M401.482266,20.7093238 C420.775646,20.7093238 434.580106,35.0829828 434.580106,56.1023377 C434.580106,77.1216926 420.775646,91.4945511 401.482266,91.4945511 C382.263936,91.4945511 368.307006,77.1216926 368.307006,56.1023377 C368.307006,35.0829828 382.263936,20.7093238 401.482266,20.7093238 Z M519.039796,2.00899821 L473.892876,2.00899821 L473.892876,110.195677 L521.632576,110.195677 C548.859136,110.195677 563.348526,99.4538567 563.348526,79.2069779 C563.348526,68.2338147 556.027596,59.0385474 544.054356,54.9424228 C554.044696,51.233737 560.145866,42.5011549 560.145866,31.9914774 C560.145866,12.4410278 545.808946,2.00899821 519.039796,2.00899821 Z M496.618806,21.7907904 L518.430706,21.7907904 C528.420256,21.7907904 536.428486,24.0329723 536.428486,33.5372301 C536.428486,43.505774 528.573516,45.5918598 518.430706,45.5918598 L496.618806,45.5918598 L496.618806,21.7907904 Z M496.618806,65.9932338 L520.566076,65.9932338 C532.386846,65.9932338 539.707776,68.5436057 539.707776,78.1255113 C539.707776,87.7850648 532.386846,90.4122841 520.566076,90.4122841 L496.618806,90.4122841 L496.618806,65.9932338 Z M632.022436,-0.000240148011 C598.619656,-0.000240148011 575.129796,23.7231814 575.129796,56.1023377 C575.129796,88.4806936 598.619656,112.204916 632.022436,112.204916 C665.349376,112.204916 688.915076,88.4806936 688.915076,56.1023377 C688.915076,23.7231814 665.349376,-0.000240148011 632.022436,-0.000240148011 Z M632.022436,20.7093238 C651.316606,20.7093238 665.120276,35.0829828 665.120276,56.1023377 C665.120276,77.1216926 651.316606,91.4945511 632.022436,91.4945511 C612.804106,91.4945511 598.847966,77.1216926 598.847966,56.1023377 C598.847966,35.0829828 612.804106,20.7093238 632.022436,20.7093238 Z M745.538326,112.126467 C768.265046,112.126467 790.000316,102.080275 790.000316,78.9756353 C790.000316,61.6657666 778.941896,52.0830605 760.333446,47.4474034 L747.521226,44.2790506 C729.980856,39.9515835 726.702356,37.7878499 726.702356,31.5279917 C726.702356,25.2689341 732.802736,20.7093238 745.538326,20.7093238 C755.605296,20.7093238 762.774546,24.6509532 767.579326,32.3012683 L787.025966,22.2550765 C782.145346,8.42335159 765.976416,0.0766072155 745.844056,0.0766072155 C720.906126,0.0766072155 702.831716,13.8322853 702.831716,33.4603827 C702.831716,54.7110802 719.304006,62.2069002 733.641716,65.4521003 L749.199186,69.0070913 C761.554786,71.7880053 765.976416,73.875692 765.976416,80.3660923 C765.976416,88.2485505 757.816506,91.4945511 746.301466,91.4945511 C732.879366,91.4945511 722.584086,84.6175126 717.855146,75.1116538 L698.560186,86.7027978 C706.950776,104.244009 724.414516,112.126467 745.538326,112.126467 Z" id="Fill-1"></path>
            </g>
        </g>
    </g>
</svg>
