<svg xmlns="http://www.w3.org/2000/svg" xmlns:xlink="http://www.w3.org/1999/xlink" version="1.1" width="256" height="256" viewBox="0 0 256 256" xml:space="preserve">
<g style="stroke: none; stroke-width: 0; stroke-dasharray: none; stroke-linecap: butt; stroke-linejoin: miter; stroke-miterlimit: 10; fill: none; fill-rule: nonzero; opacity: 1;" transform="translate(1.4065934065934016 1.4065934065934016) scale(2.81 2.81)">
	<polygon points="68.68,68.68 68.68,21.32 68.68,21.32 68.68,21.32 21.32,21.32 21.32,21.32 21.32,68.68 21.32,68.68 21.32,68.68 68.68,68.68 68.68,68.68 68.68,68.68 68.68,68.68 " style="stroke: none; stroke-width: 1; stroke-dasharray: none; stroke-linecap: butt; stroke-linejoin: miter; stroke-miterlimit: 10; fill: rgb(255,255,255); fill-rule: nonzero; opacity: 1;" transform="  matrix(1 0 0 1 0 0) "/>
	<path d="M 31.032 58.062 c -1.77 -1.196 -2.996 -2.943 -3.665 -5.252 l 4.109 -1.693 c 0.373 1.421 1.024 2.522 1.954 3.304 c 0.924 0.782 2.049 1.166 3.363 1.166 c 1.344 0 2.499 -0.409 3.464 -1.226 s 1.451 -1.859 1.451 -3.12 c 0 -1.291 -0.509 -2.345 -1.528 -3.162 c -1.018 -0.817 -2.297 -1.226 -3.825 -1.226 h -2.374 v -4.068 h 2.131 c 1.314 0 2.422 -0.355 3.322 -1.066 c 0.9 -0.711 1.35 -1.682 1.35 -2.919 c 0 -1.101 -0.403 -1.978 -1.208 -2.635 c -0.805 -0.657 -1.824 -0.989 -3.061 -0.989 c -1.208 0 -2.167 0.32 -2.878 0.965 s -1.226 1.439 -1.551 2.374 l -4.068 -1.693 c 0.539 -1.528 1.528 -2.878 2.978 -4.044 c 1.451 -1.166 3.304 -1.753 5.554 -1.753 c 1.664 0 3.162 0.32 4.488 0.965 c 1.326 0.645 2.368 1.539 3.12 2.676 c 0.752 1.143 1.125 2.422 1.125 3.843 c 0 1.451 -0.349 2.676 -1.048 3.683 c -0.699 1.007 -1.557 1.776 -2.576 2.315 v 0.243 c 1.344 0.562 2.439 1.421 3.304 2.576 c 0.859 1.155 1.291 2.534 1.291 4.145 c 0 1.611 -0.409 3.049 -1.226 4.311 c -0.817 1.261 -1.948 2.256 -3.381 2.978 c -1.439 0.722 -3.055 1.089 -4.849 1.089 C 34.721 59.856 32.803 59.258 31.032 58.062 z" style="stroke: none; stroke-width: 1; stroke-dasharray: none; stroke-linecap: butt; stroke-linejoin: miter; stroke-miterlimit: 10; fill: rgb(26,115,232); fill-rule: nonzero; opacity: 1;" transform=" matrix(1 0 0 1 0 0) " stroke-linecap="round"/>
	<path d="M 56.25 37.67 l -4.488 3.263 l -2.256 -3.422 l 8.094 -5.838 h 3.103 v 27.539 H 56.25 V 37.67 z" style="stroke: none; stroke-width: 1; stroke-dasharray: none; stroke-linecap: butt; stroke-linejoin: miter; stroke-miterlimit: 10; fill: rgb(26,115,232); fill-rule: nonzero; opacity: 1;" transform=" matrix(1 0 0 1 0 0) " stroke-linecap="round"/>
	<path d="M 0 68.684 v 14.211 C 0 86.821 3.18 90 7.105 90 h 14.211 V 68.684 H 0 z" style="stroke: none; stroke-width: 1; stroke-dasharray: none; stroke-linecap: butt; stroke-linejoin: miter; stroke-miterlimit: 10; fill: rgb(24,128,56); fill-rule: nonzero; opacity: 1;" transform=" matrix(1 0 0 1 0 0) " stroke-linecap="round"/>
	<path d="M 90 21.316 V 7.105 C 90 3.179 86.82 0 82.895 0 H 68.684 v 21.316 H 90 z" style="stroke: none; stroke-width: 1; stroke-dasharray: none; stroke-linecap: butt; stroke-linejoin: miter; stroke-miterlimit: 10; fill: rgb(25,103,210); fill-rule: nonzero; opacity: 1;" transform=" matrix(1 0 0 1 0 0) " stroke-linecap="round"/>
	<polygon points="90,68.68 68.69,68.68 68.68,68.68 68.68,68.69 68.68,90 68.68,90 90,68.68 " style="stroke: none; stroke-width: 1; stroke-dasharray: none; stroke-linecap: butt; stroke-linejoin: miter; stroke-miterlimit: 10; fill: rgb(234,67,53); fill-rule: nonzero; opacity: 1;" transform="  matrix(1 0 0 1 0 0) "/>
	<rect x="21.32" y="68.68" rx="0" ry="0" width="47.37" height="21.32" style="stroke: none; stroke-width: 1; stroke-dasharray: none; stroke-linecap: butt; stroke-linejoin: miter; stroke-miterlimit: 10; fill: rgb(52,168,83); fill-rule: nonzero; opacity: 1;" transform=" matrix(1 0 0 1 0 0) "/>
	<path d="M 68.684 0 H 7.105 C 3.18 0 0 3.18 0 7.105 v 61.579 l 0.001 0 h 21.314 l 0.001 0 V 21.316 h 47.368 l 0 -0.001 V 0 z" style="stroke: none; stroke-width: 1; stroke-dasharray: none; stroke-linecap: butt; stroke-linejoin: miter; stroke-miterlimit: 10; fill: rgb(66,133,244); fill-rule: nonzero; opacity: 1;" transform=" matrix(1 0 0 1 0 0) " stroke-linecap="round"/>
	<rect x="68.68" y="21.32" rx="0" ry="0" width="21.32" height="47.37" style="stroke: none; stroke-width: 1; stroke-dasharray: none; stroke-linecap: butt; stroke-linejoin: miter; stroke-miterlimit: 10; fill: rgb(251,188,4); fill-rule: nonzero; opacity: 1;" transform=" matrix(1 0 0 1 0 0) "/>
</g>
</svg>