<?xml version="1.0" encoding="UTF-8" standalone="no"?>
<svg
   xmlns:dc="http://purl.org/dc/elements/1.1/"
   xmlns:cc="http://creativecommons.org/ns#"
   xmlns:rdf="http://www.w3.org/1999/02/22-rdf-syntax-ns#"
   xmlns:svg="http://www.w3.org/2000/svg"
   xmlns="http://www.w3.org/2000/svg"
   xmlns:sodipodi="http://sodipodi.sourceforge.net/DTD/sodipodi-0.dtd"
   xmlns:inkscape="http://www.inkscape.org/namespaces/inkscape"
   inkscape:version="1.0 (4035a4f, 2020-05-01)"
   sodipodi:docname="NIFT_official_logo.svg"
   viewBox="0 0 316 316"
   height="316"
   width="316"
   id="svg867"
   version="1.1">
  <metadata
     id="metadata873">
    <rdf:RDF>
      <cc:Work
         rdf:about="">
        <dc:format>image/svg+xml</dc:format>
        <dc:type
           rdf:resource="http://purl.org/dc/dcmitype/StillImage" />
        <dc:title></dc:title>
      </cc:Work>
    </rdf:RDF>
  </metadata>
  <defs
     id="defs871">
    <rect
       id="rect1757"
       height="66.539175"
       width="246.37478"
       y="-120.48986"
       x="343.48601" />
    <rect
       id="rect1747"
       height="73.732599"
       width="404.63012"
       y="-169.04547"
       x="217.60109" />
    <rect
       id="rect1716"
       height="71.211263"
       width="180.57143"
       y="470.50302"
       x="-226.3501" />
    <rect
       id="rect1704"
       height="16.185205"
       width="217.60109"
       y="222.09698"
       x="-161.85205" />
    <rect
       id="rect1054"
       height="115.09479"
       width="825.44544"
       y="-392.04162"
       x="-807.46188" />
    <rect
       id="rect1046"
       height="59.345751"
       width="291.33368"
       y="-318.30903"
       x="-809.26024" />
    <rect
       id="rect883"
       height="43.871227"
       width="377.67404"
       y="33.062374"
       x="3.1790744" />
    <clipPath
       id="clipPath1038"
       clipPathUnits="userSpaceOnUse">
      <path
         d="m -258.06836,-66.708984 c -0.62072,1.742845 -3.26515,3.254007 -4.5625,4.824218 -3.25226,3.936296 -6.71204,7.696713 -10.26953,11.367188 -0.0579,0.08328 -0.11408,0.168509 -0.17188,0.251953 -3.17345,7.039771 -6.56274,13.917933 -10.07031,20.798828 -1.29466,2.906125 -2.6829,6.22148 -5.2793,5.685547 -2.71165,-0.559726 -4.49027,-2.744835 -6.09374,-5.232422 V 80.136719 c 0.10005,0.09981 0.20357,0.196179 0.30273,0.296875 2.8461,2.890282 2.26593,2.534087 5.35351,5.355468 2.74579,2.509069 3.53549,2.837967 6.18555,5.677735 0.31093,0.333183 0.59833,0.687503 0.89063,1.037109 0.47873,0.462702 1.09056,1.111608 4.96875,4.789063 1.90008,1.801737 3.82553,3.574871 5.73633,5.365231 1.23522,0.9111 2.47084,1.82179 3.65234,2.80078 0.53908,0.44669 1.02553,0.95185 1.51758,1.45118 h 139.58984 c 0.14372,-0.16591 0.28668,-0.33288 0.44141,-0.48828 0.53445,-0.53701 1.13827,-0.99987 1.6914,-1.51758 0.42605,-0.39878 0.83112,-0.82019 1.2461,-1.23047 1.20257,-1.16461 2.55264,-2.16851 3.96679,-3.06055 0.1625,-0.10251 0.36697,-0.41602 0.50391,-0.28125 0.20023,0.19707 0.34874,0.32856 0.5293,0.5 0.0451,-0.0908 0.0846,-0.20225 0.13086,-0.28515 0.66581,-1.192651 1.12792,-1.644811 2.09765,-2.662114 1.89999,-1.993202 1.8641,-1.896041 3.89844,-3.759766 0.11384,-0.115131 0.23039,-0.228055 0.3457,-0.341797 0.50208,-0.587178 1.00905,-1.168861 1.50391,-1.761719 1.25372,-1.502015 2.51025,-3.003267 3.76562,-4.503906 0.16085,-0.223743 0.3258,-0.444462 0.48438,-0.669922 -0.0753,-0.288178 -0.13423,-0.579113 -0.15039,-0.880859 -0.0581,-1.083828 1.07131,-1.89217 1.67969,-2.791016 0.84221,-1.244304 1.77656,-2.423247 2.66797,-3.632812 0.69141,-0.938216 1.35723,-1.896325 2.080073,-2.810547 0.313112,-0.396012 0.611136,-1.40656 1.023438,-1.115234 0.02591,0.01831 0.04863,0.03993 0.07422,0.05859 0.0095,-0.06489 0.01233,-0.130658 0.02344,-0.195312 0.317549,-1.847784 0.920524,-3.640518 1.111328,-5.513672 0.745187,-3.37041 0.846953,-4.22786 1.990234,-7.628906 0.507407,-1.509443 2.316556,-5.885423 2.927735,-7.13086 0.759939,-1.548574 3.111131,-5.508912 4.005859,-7.039062 0.314382,-0.183675 0.614499,-0.408478 0.914063,-0.640625 0.04814,-0.367082 0.09462,-0.733949 0.15039,-1.09961 0.07308,-1.156874 0.18225,-2.312097 0.21875,-3.470703 0.07135,-2.263912 0.0013,-4.529886 0.002,-6.794922 2.52e-4,-0.912877 -0.765283,-2.242553 0,-2.740234 0.530375,-0.344914 0.961218,-0.60854 1.400391,-0.880859 -0.468313,0.0037 -0.936138,7.07e-4 -1.404297,-0.01563 -0.105562,-0.0037 -0.0035,-0.21082 -0.0039,-0.316407 -9.99e-4,-0.288018 -6.53e-4,-0.577215 0,-0.865234 0.0045,-1.988616 0.01964,-3.976275 0.0332,-5.964844 0.0021,-2.090757 -0.01049,-4.179467 -0.07227,-6.269531 -0.02604,-0.881543 -0.115126,-2.060364 -0.03516,-2.943359 0.03618,-0.399393 0.14603,-0.789213 0.21875,-1.183594 0.04445,-0.12896 0.108994,-0.254483 0.169922,-0.38086 -0.41819,-0.685121 -0.561377,-1.955514 -0.585938,-2.433593 -0.01525,-0.297003 0.06275,-0.593239 0.06055,-0.890625 -9.78e-4,-0.131644 -0.01383,-0.263025 -0.01953,-0.394532 -0.359386,-0.993276 -0.782109,-1.9664765 -1.136719,-2.9433589 -1.413483,-3.0541357 -2.544591,-5.7045773 -3.070312,-8.9902343 -0.416367,-0.4166569 -0.932267,-0.9295808 -1.001953,-1.0214844 -1.276443,-1.6833309 -1.77582,-3.8906646 -2.001953,-5.9414063 0.03522,-0.5335373 0.01627,-1.0727379 0.107421,-1.5996093 0.181935,-1.0515818 0.621614,-2.2123198 1.279297,-3.1972658 -0.961984,-3.011999 -2.001391,-6.004981 -2.890625,-9.039062 -0.02337,-0.0026 -0.04698,-0.0077 -0.07031,-0.0098 -0.0023,-0.117024 0.0053,-0.128764 0.0039,-0.216797 -0.333303,-1.149365 -0.662045,-2.299661 -0.929687,-3.466797 -0.07386,-0.142498 -0.109695,-0.203365 -0.226563,-0.4375 -0.169384,-0.339346 -0.307448,-0.856911 -0.412109,-1.353515 -0.09729,-0.179073 -0.177284,-0.360025 -0.238281,-0.542969 -2.432454,-0.693001 -3.026574,-2.79589 -1.748047,-4.224609 -0.568977,-0.8386 -1.203117,-1.612166 -1.814447,-2.419922 0.81437,0.782781 0.90398,0.929484 -0.82031,-2.22461 -0.34297,-0.627334 0.55778,1.318754 0.80859,1.988282 0.0182,0.0485 -0.0725,-0.07701 -0.10742,-0.115235 -0.15784,-0.172612 -0.23422,-0.268338 -0.33008,-0.382812 -0.10605,-0.05204 -0.21122,-0.104072 -0.29688,-0.183594 -1.24628,-1.157013 -1.02736,-0.864025 -1.45898,-2.013672 -0.0382,-0.197341 -0.0592,-0.314245 -0.0859,-0.455078 -1.13671,-1.660104 -0.29494,-0.209243 -1.43945,-2.130859 -0.0905,-0.151956 -0.16937,-0.310368 -0.25195,-0.466797 -0.0461,-0.03163 -0.0935,-0.06229 -0.13672,-0.09766 -0.75071,-0.614374 -1.38442,-1.3354 -1.7793,-2.232422 -0.0968,-0.503028 0.0296,0.04606 -0.54297,-0.96875 -0.0156,-0.02737 0.0193,-0.0667 0.004,-0.09375 -0.0321,-0.0542 -0.53083,-0.636565 -0.51953,-0.634765 0.23524,0.0367 0.39029,0.27058 0.58593,0.40625 -0.0377,-0.0854 -0.0724,-0.172038 -0.10937,-0.257813 -0.7957,-0.297308 -1.18552,-1.00076 -1.56641,-1.732422 -0.0252,-0.01694 -0.049,-0.03585 -0.0742,-0.05273 0.0248,0.05656 0.0564,0.110142 0.0781,0.167969 0.0284,0.07548 -0.064,-0.08802 -0.13086,-0.203125 -0.22898,-0.152955 -0.4544,-0.311398 -0.68164,-0.466797 -0.20084,-0.261811 -0.41413,-0.514952 -0.60352,-0.785156 -0.11923,-0.170092 -0.23051,-0.345924 -0.32031,-0.533203 -0.009,-0.01924 0.056,-0.02996 0.043,-0.04687 -0.79545,-1.035692 -0.49877,-0.399485 -1.16406,-1.470703 -0.0532,-0.08561 0.13367,0.149769 0.20117,0.224609 -0.0125,-0.09689 -0.0448,-0.197096 -0.0644,-0.294922 -0.0723,-0.06636 -0.0784,-0.07616 -0.42383,-0.376953 -0.17453,-0.151966 -0.35024,-0.301866 -0.52539,-0.453125 -0.0265,-0.0289 -0.0577,-0.05435 -0.0859,-0.08203 -0.62995,0.232153 -1.26473,0.444176 -1.9043,0.611328 -1.61796,0.422863 -2.88904,-1.68351 -4.33398,-2.525391 -0.69609,-0.977258 -1.47947,-1.899583 -2.09375,-2.929687 -1.01003,-0.880727 -2.30915,-1.417528 -3.19531,-2.457032 -1.81778,-1.749411 -6.02481,-5.916857 -6.81641,-8.169922 -0.0821,-0.233777 -0.14822,-0.487341 -0.20508,-0.748046 z m 171.052735,0 c 0.506321,0.477032 1.007336,0.961268 1.496094,1.46289 0.46298,0.475167 5.496166,6.737453 6.835937,8.400391 0.174676,0.422289 1.587716,3.207714 2.199219,5.544922 0.05577,0.05381 0.121676,0.0963 0.173828,0.154297 0.631592,0.702357 1.145012,1.416905 1.59375,2.142578 v -17.705078 z m -39.822265,4.189453 c -0.30174,-0.233253 0.59742,0.472308 0.89648,0.708984 0.005,4.7e-5 0.007,-4.8e-5 0.0117,0 -0.30265,-0.236633 -0.60425,-0.474022 -0.9082,-0.708984 z m 5.56055,3.310547 c -0.29766,1.199465 0.43122,2.794913 0.72851,4.070312 0.18413,0.789957 1.51703,2.843694 1.28516,2.066406 -1.11883,-3.750704 -1.70504,-5.458052 -2.01367,-6.136718 z m -69.06446,5.728515 c 3.25954,0.07978 5.59298,1.942889 6.39453,4.623047 1.35849,0.832992 2.42188,2.694321 2.42188,5.621094 v 10.292969 c 0.69856,0.270535 1.36531,0.706929 2.05273,1.521484 0.67404,0.798694 0.75398,1.949047 1.13086,2.923828 -0.006,0.662632 -0.005,0.873662 -0.0176,1.517578 -0.002,0.09055 0.0101,0.285946 -0.004,0.296875 0.0294,0.227901 0.0802,0.567558 0.0625,0.525391 0.0467,1.092209 0.11523,1.398428 -0.16602,2.611328 -0.0838,0.361329 -0.14652,1.301871 -0.40429,1.035156 -1.17242,-1.213139 -2.02311,-2.356989 -2.6543,-3.316406 -0.001,0.481331 0,0.994422 0,1.121094 0,1.061354 0.007,1.45093 -0.64453,2.162109 -0.0469,0.759039 -0.092,1.51841 -0.14063,2.277344 0.6378,-0.214143 1.27395,-0.453622 1.9375,-0.441406 0.41289,0.0076 -0.69465,0.446531 -1.04687,0.662109 -1.53766,0.941136 -1.78436,1.081876 -1.8457,1.113281 0.0242,-0.01131 0.0265,-0.0067 -0.0625,0.05664 0.76834,0.47131 1.27721,1.189845 1.23046,2.314453 -0.0734,1.766112 -1.38928,3.249599 -2.08398,4.875 -0.6856,0.230442 -1.34488,0.56275 -2.05664,0.691406 -0.65144,0.117754 -1.83171,-0.06781 -2.56055,-0.115234 -1.3859,-0.09016 -2.77455,-0.06119 -4.16211,-0.04687 -1.88749,0.05048 -3.64059,0.252717 -4.78711,-2.644531 -0.19956,-0.504291 -0.22596,-1.040765 -0.16015,-1.583985 -0.20138,-0.07647 -0.41183,-0.145825 -0.66407,-0.193359 -0.54508,-0.10272 -1.10351,-0.183413 -1.66211,-0.269531 -1.16953,0.967671 -2.34599,1.924347 -3.62695,2.75 -0.17022,0.109714 -0.65196,0.391254 -0.57226,0.205078 0.12635,-0.295203 0.24629,-0.601516 0.36914,-0.908203 -1.83521,0.326958 -3.6749,0.876994 -5.49805,0.591796 -0.7547,-0.118058 -1.13484,-1.187181 -1.21094,-1.947265 -0.0438,-0.437895 -0.0551,-0.833012 -0.0547,-1.210938 0.0237,0.0053 0.0675,-0.01936 0.13476,-0.08203 0.16832,-0.156892 0.31935,-0.328525 0.46094,-0.507812 -0.10836,-0.05564 -0.23025,-0.125738 -0.34375,-0.1875 -0.10131,0.238143 -0.2225,0.50639 -0.25195,0.632812 0.004,-0.26277 0.0219,-0.50968 0.0469,-0.746094 -0.14137,-0.07939 -0.26686,-0.139783 -0.41602,-0.228515 -0.003,-0.0018 -0.005,-0.0041 -0.008,-0.0059 -0.11322,-0.0049 -0.22669,9.54e-4 -0.33984,-0.0059 0.005,-0.09588 0.0121,-0.146267 0.0176,-0.240234 -0.8438,-0.760427 -0.781,-2.023444 -0.47071,-3.421875 -0.003,-0.02593 -0.005,-0.04991 -0.008,-0.07617 -0.2603,-0.108408 -0.51388,-0.227295 -0.7793,-0.328125 -0.31043,-0.11793 -0.9099,-0.196858 -1.36328,-0.294922 -0.33838,0.331747 -0.70199,0.668653 -1.10742,1.005859 -0.30355,0.252457 -0.20457,-0.765232 -0.35352,-1.130859 -0.0421,-0.103422 -0.15903,-0.160866 -0.21093,-0.259766 -0.6027,-1.149171 -0.5268,-1.277219 -0.8711,-2.691406 0.36284,-3.744503 -0.1715,-2.212542 3.67774,-3.300781 -1.33878,-1.623474 -2.81006,-3.223069 -2.52735,-5.142578 0.30071,-2.041648 1.73871,-3.601475 3.25196,-5.144532 1.4e-4,-1.242734 0.44632,-1.949145 1.27929,-2.351562 -10e-4,7.15e-4 0.005,-0.0044 0.004,-0.0039 -0.0176,0.0067 -0.0108,-0.0097 0.043,-0.06641 0.6324,-0.666247 1.49364,-1.070691 2.21094,-1.644531 9.23014,-7.384113 -1.51052,0.784584 9.60742,-7.521484 3.27758,-2.448642 6.30735,-3.428262 8.80273,-3.367188 z m -20.66406,12.59961 c 0.32635,-0.156927 0.7132,-0.269723 1.15625,-0.347657 0.19907,-0.26467 0.39959,-0.527701 0.56836,-0.80664 0.30145,-0.498226 -1.54862,1.065002 -1.72461,1.154297 z m 131.925782,-12.203125 c -0.0055,0.0073 0.02524,0.03913 0.103516,0.09961 0.4808,0.371488 1.032259,0.658265 1.554687,0.976563 -0.582342,-0.488268 -1.629272,-1.11461 -1.658203,-1.076173 z m -13.59961,5.15039 c 0.07594,0.286024 0.142274,0.526365 0.236329,0.800782 -0.05407,-0.220099 -0.119976,-0.478818 -0.183594,-0.734376 -0.01695,-0.02262 -0.0358,-0.04376 -0.05273,-0.06641 z m -16.652342,0.271485 c -0.0696,0.0061 -0.14736,0.401564 -0.0391,0.482421 0.13593,0.101279 0.28273,0.190761 0.42968,0.279297 -0.11567,-0.248431 -0.23298,-0.495991 -0.36132,-0.738281 -0.009,-0.01709 -0.0194,-0.0243 -0.0293,-0.02344 z m -0.48633,0.820312 c 0.008,0.01636 0.0156,0.03253 0.0234,0.04883 0.003,0.0032 0.005,0.0066 0.008,0.0098 -0.0111,-0.01908 -0.02,-0.03965 -0.0312,-0.05859 z m 0.64844,0.902344 c 0.0335,0.04222 0.0594,0.09116 0.0957,0.130859 0.0789,0.08627 0.41031,0.220031 0.31641,0.150391 -0.13355,-0.09903 -0.27532,-0.186781 -0.41211,-0.28125 z m -80.46094,0.953125 c -0.21535,0.0042 -0.41521,0.0085 -0.7832,0.03125 -0.1002,0.0062 -0.17516,0.01827 -0.27149,0.02539 0.3252,0.300227 0.63504,0.620188 0.94336,0.941407 0.0238,-0.347694 0.0572,-0.684184 0.11133,-0.998047 z m 84.42774,4.595703 c 0.0777,0.07058 0.15436,0.142951 0.23437,0.210937 0.0576,0.0489 -0.10291,-0.111273 -0.16211,-0.158203 -0.0233,-0.01848 -0.0481,-0.03545 -0.0723,-0.05273 z m 3.39257,5.146484 c 0.0366,0.03951 0.0728,0.07963 0.10938,0.119141 -0.0154,-0.01826 -0.0679,-0.04789 -0.0449,-0.05469 0.0389,-0.01151 0.15078,0.05603 0.11718,0.0332 -0.0562,-0.0382 -0.12008,-0.06725 -0.18164,-0.09766 z m 2.552738,3.546875 c 0.03273,0.146897 0.06876,0.309456 0.08594,0.398438 0.02905,-0.0493 0.04151,-0.07281 0.05469,-0.09961 -0.01338,-0.05337 -0.03761,-0.130023 -0.05469,-0.191406 -0.0164,-0.01825 -0.06155,-0.08013 -0.08594,-0.107422 z m -190.494138,2.429688 c -0.57249,1.178999 -1.10592,2.37741 -1.58008,3.597656 -0.22813,0.587078 0.86777,-0.926897 1.18555,-1.470703 0.0573,-0.289537 0.0634,-0.350992 0.11328,-0.605469 l -0.16797,0.242188 c -0.10286,0.115774 -0.3674,0.490936 -0.3086,0.347656 0.14214,-0.346507 0.37909,-0.871827 0.62696,-1.412109 0.046,-0.242285 0.0948,-0.497808 0.13086,-0.699219 z m 199.636716,1.921875 c 0.0072,1.195888 0.0072,2.391851 -0.01758,3.585937 0.133088,0.366713 0.141982,0.658492 0.04687,1.027344 0.01243,0.0702 0.0269,0.142958 0.04102,0.214844 0.761483,2.413498 1.568059,4.812775 2.339844,7.222656 0.0397,-0.0063 0.03659,-0.0047 0.08008,-0.01172 0.592644,0.07558 1.225442,-0.0022 1.777344,0.226563 1.089763,0.45175 2.491121,1.727992 2.943359,2.90625 0.201302,0.524478 0.221069,1.097907 0.291016,1.658203 0.443512,0.8967495 0.51019,0.8046084 0.603515,1.7851562 0.193362,4.3200512 -0.522077,8.62830023 -0.308593,12.9492188 0.344777,1.6090733 0.542338,2.9651911 0.800781,4.5996094 0.05836,0.8802986 0.04169,0.6366842 0.06445,0.9335937 0.05313,0.1630672 0.103297,0.3263009 0.152344,0.4902349 0.244315,0.604143 0.73502,1.265239 0.417969,1.730468 0.150587,0.855908 0.218366,1.721689 0.142578,2.603516 -0.07051,0.820433 -0.326376,1.511334 -0.576172,2.267578 0.218732,2.836987 0.193706,5.695765 0.191406,8.541016 -0.0079,1.17122 -0.01293,2.342448 -0.01953,3.513672 1.828367,-6.125817 3.771537,-12.233649 6.427734,-18.052735 V -17.26172 c -1.259888,0.387731 -2.514583,0.78718 -3.734375,1.253907 -4.057576,-3.603862 -7.885785,-7.444644 -11.664062,-11.337891 z m -121.447266,2.316406 c -0.26475,0.402166 -0.59512,0.890599 -1.05664,1.472656 0.53358,-0.291473 0.98987,-0.491415 1.39062,-0.632812 0.048,-0.214001 0.0865,-0.422902 0.12305,-0.630859 -0.18983,-0.04463 -0.34793,-0.108191 -0.45703,-0.208985 z m 129.847656,4.671875 c -0.02188,-0.01716 0.03006,0.05203 0.181641,0.236328 -0.02793,-0.04595 -0.05776,-0.09091 -0.08594,-0.136718 -0.02588,-0.0269 -0.08786,-0.09346 -0.0957,-0.09961 z m -106.289066,0.369141 c -0.01,7.34e-4 -0.0194,0.0032 -0.0293,0.0039 0.007,0.0024 0.0142,0.0054 0.0215,0.0078 0.004,0.0015 0.003,-0.01005 0.008,-0.01172 z m -15.82812,5.642578 c -0.0389,0.0304 -0.0808,0.05671 -0.11914,0.08789 -0.0256,0.02087 0.0138,0.03394 0.0644,0.03711 0.0176,-0.04206 0.0367,-0.08312 0.0547,-0.125 z m 12.3125,1.935547 c -0.048,0.04651 -0.10148,0.08718 -0.14844,0.134765 -0.13076,0.132527 0.0392,0.05534 0.26172,-0.08984 -0.0376,-0.01374 -0.0756,-0.03069 -0.11328,-0.04492 z m 108.593749,1.234375 c 0.08257,0.187966 0.126687,0.26913 0.193359,0.410156 -0.02607,-0.108175 -0.04842,-0.216991 -0.07813,-0.324219 -0.01282,-0.04626 -0.134544,-0.129872 -0.115234,-0.08594 z m -8.673828,3.3574216 c -0.01585,0.1694642 0.0016,0.3344401 0.05859,0.4921875 0.0077,-0.055779 0.02209,-0.1104944 0.03125,-0.1660156 -0.02984,-0.1087665 -0.06029,-0.217325 -0.08984,-0.3261719 z M -74.716797,27.8125 c -0.198876,0.649099 -0.391104,1.299123 -0.585937,1.949219 0.17816,0.03808 0.372199,0.08911 0.585937,0.15625 z m -7.476562,4.632812 c -0.14063,0.0049 -0.281229,0.01053 -0.421875,0.01563 0.10834,0.06983 0.239578,0.159307 0.349609,0.230468 0.02406,-0.08284 0.04712,-0.159779 0.07227,-0.246094 z m 4.49414,5.605469 c -0.06982,0.265383 -0.155733,0.567955 -0.226562,0.84375 0.08149,0.02752 0.124035,0.05775 0.197265,0.08594 0.0096,-0.310063 0.01962,-0.619837 0.0293,-0.929688 z m -0.0625,2.048828 c -0.104063,0.03415 -0.197489,0.06747 -0.324219,0.101563 -0.07292,0.01962 -0.118339,0.03896 -0.189453,0.05859 -0.101936,0.402884 -0.130787,0.498821 -0.267578,1.037109 -0.01446,-0.385386 -0.01968,-0.684926 -0.02539,-0.947266 -1.078384,0.309627 -1.87846,0.604911 -2.56836,0.878907 -0.0031,0.576298 0.0045,1.152551 -0.01367,1.728515 -0.04004,1.2722 -0.151776,2.541982 -0.228515,3.8125 0.744872,0.365956 0.5959,0.952374 0.199218,2.056641 0.105132,0.09314 0.0037,0.253593 -0.154296,0.435547 -0.0652,0.18061 -0.125136,0.341353 -0.195313,0.546875 -0.274368,-0.157344 -0.361723,0.360419 -0.478515,0.824218 -0.207493,0.7476 -0.534787,1.660828 -0.91211,2.404297 -0.01272,1.323377 -0.47694,2.788704 -0.785156,4.083985 -0.193552,0.813399 -0.3843,1.627609 -0.576172,2.441406 -0.18793,0.787608 -0.374197,1.576232 -0.564453,2.363281 -0.16481,0.681779 -0.293415,1.372665 -0.5,2.042969 -0.61872,2.007556 -1.540512,3.880537 -2.611328,5.677734 -1.433663,1.830132 -2.066721,2.067795 -3.402344,0.951172 -0.05029,0.236163 -0.07713,0.353257 -0.134766,0.619141 -0.209742,1.861431 -0.78459,3.651121 -1.105468,5.490234 -0.09591,0.549718 -0.106307,1.932243 -0.392579,2.457031 -0.264977,0.485766 -0.561736,0.953894 -0.847656,1.427735 0.01007,0.01696 0.02335,0.03174 0.0332,0.04883 0.01014,-0.0082 0.05786,-0.06606 0.04687,-0.04687 -0.008,0.01396 -0.02963,0.04463 -0.03906,0.06055 0.114956,0.200972 0.217627,0.410185 0.298828,0.630859 0.288492,0.78401 -0.763597,1.486742 -1.193359,2.203125 -1.445192,2.409035 -2.889217,4.330783 -4.539063,6.658203 -0.656534,0.901596 -2.626354,3.866375 -3.833984,4.777344 -0.0285,0.0215 -0.0662,0.05621 -0.0957,0.08008 -0.27254,0.421474 -0.95276,0.890169 -1.26172,1.279297 -1.39772,1.760397 -3.23338,3.396758 -5.15039,4.572269 -0.33337,0.20442 -0.68813,0.36936 -1.04297,0.53515 -0.15037,0.11666 -0.29219,0.24562 -0.44726,0.35547 -0.0343,0.0243 -0.0886,0.0534 -0.12891,0.082 -0.072,0.11138 -0.1401,0.14693 -0.20703,0.13086 -0.10328,0.0652 -0.19119,0.11651 -0.29102,0.1504 -0.32599,0.35298 -0.64873,0.70825 -0.94726,1.08398 -0.20997,0.26426 -0.35236,0.70808 -0.47852,1.12109 0.71418,0.56255 0.42913,0.34652 -0.625,1.95703 -0.0277,0.0423 -0.0462,0.0943 -0.0703,0.14063 -0.0569,0.16777 -0.12035,0.33264 -0.18164,0.49805 h 2.52734 c 1.69913,-1.7353 3.32439,-3.54303 4.96289,-5.33594 1.78168,-1.949595 3.22324,-3.539097 4.54102,-5.007816 0.28703,-0.424183 0.57814,-0.84978 0.8418,-1.261718 0.96414,-1.21421 1.885988,-2.46331 2.89257,-3.642579 1.87533,-2.197057 3.884776,-4.261158 5.851563,-6.365234 0.217195,-0.266449 0.37037,-0.447 0.597656,-0.726563 1.955302,-2.405017 2.995258,-3.709651 3.582031,-4.46289 0.905957,-5.134098 2.099348,-10.209207 3.490235,-15.234375 0.0062,-0.416767 0.009,-0.833197 0.111328,-1.234375 0.06985,-0.273976 0.242161,-0.721095 0.423828,-1.179688 -0.01937,-0.326566 0.367654,-0.814249 0.421875,-1.1875 0.144266,-0.993056 0.13511,-2.300313 0.380859,-3.283203 0.131614,-0.526395 0.02661,-1.432697 0.560547,-1.529297 0.207365,-0.03751 0.416492,-0.05909 0.625,-0.07422 1.208842,-3.816795 2.486705,-7.609632 3.806641,-11.378907 0.264656,-0.755765 0.233094,-1.997485 0.548828,-2.71875 0.01971,-0.730564 0.04457,-1.457489 0.06641,-2.1875 z m -18.978515,37.164063 c 0.270479,0.331147 0.540145,0.663328 0.794922,1.011719 0.34326,0.317839 0.688912,0.634691 1.015624,0.96289 0.258113,0.126214 0.520711,0.243653 0.769532,0.388672 0.12528,0.07302 0.0017,0.170468 -0.166016,0.279297 0.143805,0.175872 0.275345,0.357716 0.396484,0.546875 0.324602,-1.754867 -0.864997,-1.870148 -2.353515,-3.179687 -0.152136,-0.0031 -0.30485,-0.0078 -0.457031,-0.0098 z m 22.023437,10.970703 c -0.134739,0.191037 -0.286515,0.370261 -0.476562,0.521484 -0.107566,0.08559 -0.177424,0.129488 -0.28125,0.210938 -0.0029,0.0041 -0.0069,0.0076 -0.0098,0.01172 0.06038,0.443749 0.38474,1.201886 0.0098,1.126953 -0.193282,-0.03861 -0.416582,-0.07225 -0.623047,-0.107422 0.309625,0.713771 0.678241,1.407218 0.740234,2.267578 0.228854,3.175945 -1.318757,4.822667 -3.425781,6.892578 -2.686678,2.378206 -3.132901,2.861026 -5.773438,4.755856 -0.32081,0.53713 -0.661568,0.95094 -1.083984,1.09766 -0.161555,0.15169 -0.323501,0.30374 -0.404297,0.43945 -0.288497,0.48459 -0.574741,0.97205 -0.861328,1.45899 h 12.189453 z M -294.51562,102.50781 v 4.40235 h 4.43554 c -0.66302,-0.62689 -1.42165,-1.3664 -2.54101,-2.47852 -0.63828,-0.63414 -1.27417,-1.27223 -1.89453,-1.92383 z m 200.124995,2.68555 c -0.602292,0.70548 -1.235506,1.34235 -1.984375,1.7168 h 2.728516 c 0.137899,-0.24585 0.272409,-0.49346 0.412109,-0.73828 -0.570522,-0.22755 -0.958573,-0.54875 -1.15625,-0.97852 z"
         style="opacity:0.620579;fill:none;fill-opacity:0.964706;stroke:#000000;stroke-width:2.74016;stroke-linecap:round;stroke-linejoin:round;stroke-opacity:1"
         id="path1040" />
    </clipPath>
  </defs>
  <sodipodi:namedview
     inkscape:current-layer="g875"
     inkscape:window-maximized="1"
     inkscape:window-y="23"
     inkscape:window-x="0"
     inkscape:cy="187.3646"
     inkscape:cx="118.14832"
     inkscape:zoom="0.3931962"
     showgrid="false"
     id="namedview869"
     inkscape:window-height="687"
     inkscape:window-width="1280"
     inkscape:pageshadow="2"
     inkscape:pageopacity="0"
     guidetolerance="10"
     gridtolerance="10"
     objecttolerance="10"
     borderopacity="1"
     bordercolor="#666666"
     pagecolor="#ffffff" />
  <g
     id="g875"
     inkscape:label="Image"
     inkscape:groupmode="layer">
    <text
       style="font-style:normal;font-weight:normal;font-size:40px;line-height:1.25;font-family:sans-serif;white-space:pre;shape-inside:url(#rect883);fill:#000000;fill-opacity:1;stroke:none;"
       id="text881"
       xml:space="preserve" />
    <path
       d="M 313.1066,157.80576 A 154.40167,153.50249 0 0 1 158.70493,311.30824 154.40167,153.50249 0 0 1 4.3032532,157.80576 154.40167,153.50249 0 0 1 158.70493,4.3032684 154.40167,153.50249 0 0 1 313.1066,157.80576 Z"
       style="opacity:0.877814;fill:none;fill-opacity:0.964706;stroke:#000000;stroke-width:2.35491;stroke-linecap:round;stroke-linejoin:round;stroke-opacity:1"
       id="path891" />
    <path
       d="M 272.53314,157.35484 A 113.77226,112.61633 0 0 1 158.76088,269.97118 113.77226,112.61633 0 0 1 44.988617,157.35484 113.77226,112.61633 0 0 1 158.76088,44.73851 113.77226,112.61633 0 0 1 272.53314,157.35484"
       style="opacity:0.871383;fill:none;fill-opacity:0.964706;stroke:#000000;stroke-width:1.73144;stroke-linecap:round;stroke-linejoin:round;stroke-opacity:1"
       id="path891-4" />
    <path
       d="M -6.6295384e-7,1.127113e-6 7.1489276,11.786893 20.911522,12.579947 11.910663,23.021331 15.409299,36.355404 2.6975338,31.021643 -8.9027848,38.469499 -7.7582283,24.731669 -18.426256,16.000624 -5.0071156,12.843939 Z"
       transform="matrix(0.30223628,0.04003843,-0.04475812,0.33786359,24.948019,130.99275)"
       inkscape:transform-center-y="-0.60932792"
       inkscape:transform-center-x="-0.11808081"
       style="opacity:0.906752;fill:#000000;fill-opacity:1;stroke:#000000;stroke-width:2.74016;stroke-linecap:round;stroke-linejoin:round;stroke-opacity:1"
       id="path908" />
    <path
       d="M -6.6295384e-7,1.127113e-6 7.1489276,11.786893 20.911522,12.579947 11.910663,23.021331 15.409299,36.355404 2.6975338,31.021643 -8.9027848,38.469499 -7.7582283,24.731669 -18.426256,16.000624 -5.0071156,12.843939 Z"
       transform="matrix(0.30223628,0.04003843,-0.04475812,0.33786359,290.94814,130.88594)"
       inkscape:transform-center-y="-0.60932792"
       inkscape:transform-center-x="-0.11808081"
       style="opacity:0.906752;fill:#000000;fill-opacity:1;stroke:#000000;stroke-width:2.74016;stroke-linecap:round;stroke-linejoin:round;stroke-opacity:1"
       id="path908-1" />
    <path
       d="m 166.70166,108.77689 a 12.955354,11.738267 0 0 1 -12.95535,11.73827 12.955354,11.738267 0 0 1 -12.95536,-11.73827 12.955354,11.738267 0 0 1 12.95536,-11.738263 12.955354,11.738267 0 0 1 12.95535,11.738263 z"
       style="opacity:0.794212;fill:#c00000;fill-opacity:1;stroke:#c00000;stroke-width:2.26205;stroke-linecap:round;stroke-linejoin:round;stroke-opacity:1"
       id="path1004" />
    <text
       style="font-style:normal;font-weight:normal;font-size:40px;line-height:1.25;font-family:sans-serif;white-space:pre;shape-inside:url(#rect1046);fill:#000000;fill-opacity:1;stroke:none;"
       id="text1044"
       xml:space="preserve" />
    <path
       id="path1063"
       d="m 178.66398,124.61972 45.0853,0.93449 -20.92433,23.86229 z"
       style="fill:#000000;fill-opacity:0.976471;stroke:#000000;stroke-width:1px;stroke-linecap:butt;stroke-linejoin:round;stroke-opacity:0.975708" />
    <path
       style="fill:none;stroke:#000000;stroke-width:3.2;stroke-linecap:round;stroke-linejoin:round;stroke-miterlimit:4;stroke-dasharray:none;stroke-opacity:0.976471;paint-order:normal"
       d="m 73.89936,136.34306 12.08049,-10.49095 2.13678,-0.91827 1.68595,-0.44959 2.47274,-0.11239 1.57357,0.33719 0.56198,1.01157 -0.67438,2.47274 -3.70911,6.51904 -6.74384,9.77856 -7.08102,9.66617 -7.08103,11.46452 -0.44959,1.46116 v 1.23637 l 0.67438,1.79836 1.34877,0.44959 1.79836,0.22479 3.03472,-1.34876 7.19343,-9.10418 9.55376,-13.26288 8.87939,-10.90253 5.39507,-6.29425 3.82151,-3.03472 3.8215,-1.91076 2.92233,-0.11239 3.70911,0.56198 2.80993,1.57356 2.02315,2.36035 0.67439,2.24794 0.33719,2.80993 -4.72069,9.66617 -7.41821,13.26287 -2.36035,4.72069 -1.47249,4.04246 -0.23843,2.22535 1.0332,1.90745 1.74849,0.95372 2.86117,-0.15895 3.65594,-1.90745 4.60965,-4.53018 6.59658,-9.45774 7.47083,-12.7163 4.76861,-7.62978 3.65594,-5.72234 1.19215,-1.66901 1.19215,-1.11268 2.14588,-0.55633 1.82796,0.55633 0.7153,1.51006 0.0795,1.98693 -1.3511,3.89436 -8.5835,14.38531 -5.56338,9.06037 -2.30483,5.4839 -0.7153,3.17907 0.15896,3.41751 2.0664,2.30483 3.57646,0.87424 3.25855,-0.47686 3.97384,-3.97384 6.99396,-11.20624 6.35815,-10.9678 6.51711,-12.95473 8.34507,-18.04125 5.72233,-13.59054 3.57646,-8.106647 3.65593,-6.437624 3.33803,-4.291751 1.98692,-1.669014 2.46379,-0.953722 2.70221,0.317907 1.90744,1.27163 1.0332,1.430584 0.31791,2.384305 -1.19215,4.927565 -6.11972,13.511067 -7.47083,15.10061 -7.78873,12.79577 -14.94165,22.88934 -18.27968,25.43259 -7.31187,10.33199 -7.15291,12.23944 -3.81489,8.42455 -2.38431,7.62978 -0.15895,6.83501 0.47686,4.13279 0.95372,2.70222 3.17907,2.86116 4.1328,0.47686 4.60966,-1.58953 5.08652,-5.40443 2.86117,-4.76861 9.06036,-21.14085 8.42454,-20.50503 8.10664,-18.27967 16.8491,-27.97586 16.05433,-24.79678 12.08048,-15.41851 6.19919,-6.517107 2.38431,-1.589536 3.02012,-0.476861 3.49698,1.112676 0.95372,2.066398 -0.95372,3.179074 -7.62978,11.285716 -20.18712,23.84306 -14.14688,19.07445 -6.35815,9.21931 -2.0664,5.08652 -0.79477,4.60966 0.31791,2.86117 1.58954,1.74849 2.54326,0.95372 3.33803,-0.15895 3.81488,-1.11268 8.58351,-5.56338 9.85513,-8.74246 8.90141,-10.80885"
       id="path1061" />
    <g
       style="font-style:normal;font-weight:normal;font-size:26.6667px;line-height:1.25;font-family:sans-serif;white-space:pre;fill:#000000;fill-opacity:1;stroke:none"
       id="text1714"
       transform="matrix(0.90138671,-0.19638262,0.17316613,0.96960698,444.13291,-309.18999)"
       aria-label="राष्ट्रिय फैशन प्रौद्यौगिकी संस्थान">
      <path
         id="path1766"
         style="font-style:normal;font-variant:normal;font-weight:bold;font-stretch:normal;font-size:26.6667px;font-family:sans-serif;-inkscape-font-specification:'sans-serif Bold'"
         d="m -513.69673,309.08754 1.42676,1.17601 -3.68539,4.47119 q 1.21248,0.39193 2.34786,1.32777 1.24591,1.02694 1.89565,2.49055 0.64797,1.44529 0.69802,3.30892 1.80511,-0.0814 4.06857,-0.49371 2.26171,-0.43064 4.99182,-1.18389 l 0.15643,0.56766 q -2.38538,0.68305 -4.54362,1.13146 -2.16829,0.44014 -4.11772,0.6557 -3.90063,0.41278 -4.83506,-0.35743 -0.92438,-0.76192 0.0943,-1.99778 0.48863,-0.59281 1.43725,-1.21143 -0.2921,-1.30383 -1.1361,-1.9995 -0.66314,-0.54659 -2.10087,-0.97232 l -3.75165,4.55157 -1.42676,-1.17601 z m -3.1802,3.85828 z m 12.81748,9.95738 z" />
      <path
         id="path1768"
         style="font-style:normal;font-variant:normal;font-weight:bold;font-stretch:normal;font-size:26.6667px;font-family:sans-serif;-inkscape-font-specification:'sans-serif Bold'"
         d="m -508.27219,302.50633 1.42676,1.17601 -2.50938,3.04443 11.4342,9.42466 -0.30643,0.37177 -2.39043,0.0545 -10.03757,-8.27349 -1.84684,2.24062 -1.42676,-1.17601 z m -2.50938,3.04443 z" />
      <path
         id="path1770"
         style="font-style:normal;font-variant:normal;font-weight:bold;font-stretch:normal;font-size:26.6667px;font-family:sans-serif;-inkscape-font-specification:'sans-serif Bold'"
         d="m -499.39274,294.7617 1.16969,1.43195 -3.0555,2.49588 9.34927,11.44552 -0.45378,0.37068 -2.1838,-0.3682 -8.29491,-10.15475 -2.24876,1.83691 -1.16969,-1.43195 2.59163,-2.11698 q -2.19403,-0.1749 -3.36372,-1.60685 -1.38386,-1.69414 -0.36233,-4.02491 0.81501,-1.84263 2.68058,-3.36652 2.93449,-2.39704 6.56556,-2.89161 3.63292,-0.51289 7.95234,0.88493 l -0.68572,0.56013 q -3.77946,-0.69562 -6.89029,-0.0376 -3.11907,0.64797 -5.55944,2.64139 -1.8454,1.50741 -2.26059,2.87213 -0.42342,1.35464 0.56505,2.56474 0.88139,1.07901 2.35689,1.58865 z" />
      <path
         id="path1772"
         style="font-style:normal;font-variant:normal;font-weight:bold;font-stretch:normal;font-size:26.6667px;font-family:sans-serif;-inkscape-font-specification:'sans-serif Bold'"
         d="m -487.34218,284.91819 1.16969,1.43195 -2.18826,1.78749 2.5865,3.16642 q 0.84843,1.03867 1.01159,2.08229 0.17324,1.03538 -0.32317,2.01251 -0.50465,0.96705 -1.9021,2.52887 -1.67711,1.85752 -1.92626,2.95211 -0.23907,1.08636 0.51876,2.0141 1.29325,1.58321 3.68319,-0.36901 0.83699,-0.68369 1.75254,-2.23858 0.91555,-1.55488 1.34367,-3.04785 l 2.00782,0.46151 q -0.83052,2.9145 -3.13979,4.80083 -1.89583,1.54861 -4.05535,1.76584 -2.15768,0.19891 -3.40974,-1.33388 -1.6804,-2.05717 0.74493,-4.72762 -1.24615,0.24453 -2.41233,0.15473 -1.17442,-0.0999 -1.68542,-0.35498 -0.50916,-0.27341 -0.97044,-0.83813 l -1.95223,-2.38994 -2.00675,1.63921 -1.16969,-1.43195 z m 0.64369,8.48584 -3.24547,-3.97316 -4.63872,3.78914 z m 0.0426,0.58729 -7.98588,-0.18503 2.2982,2.81348 q 1.66392,2.037 3.83201,0.266 1.43195,-1.16969 1.85567,-2.89445 z m -3.17706,-7.03853 z m 8.05518,14.36882 z m 0.7098,1.4041 -1.81843,6.74778 -1.94562,-0.34419 2.1917,-7.23762 0.36303,-0.29654 5.9057,2.00191 -0.21306,0.64479 z m 2.85068,2.74888 z" />
      <path
         id="path1774"
         style="font-style:normal;font-variant:normal;font-weight:bold;font-stretch:normal;font-size:26.6667px;font-family:sans-serif;-inkscape-font-specification:'sans-serif Bold'"
         d="m -470.8613,275.76622 0.91235,1.60818 -3.44289,1.95321 7.31166,12.88816 -0.23783,0.13492 -2.41404,-0.66643 -1.8504,-3.26168 q -0.55025,1.40499 -2.10181,2.28522 -1.12121,0.63607 -2.74236,0.52283 -1.60983,-0.11967 -4.87523,-1.23127 l -0.1285,-0.22651 q 1.67679,-1.16085 2.12969,-2.4208 0.44647,-1.27127 -0.32453,-2.6303 -0.61037,-1.0759 -1.83362,-1.38494 l -3.73734,2.12025 -0.91235,-1.60819 z m -4.30861,4.57011 -4.60938,2.61498 q 2.24916,0.1911 3.17436,1.82194 0.75815,1.33638 0.41481,2.68388 -0.33845,1.32974 -1.78481,2.65928 1.22172,0.27997 2.12949,0.24402 0.91909,-0.0424 1.54198,-0.39574 1.13253,-0.6425 1.71915,-1.79866 0.59795,-1.16259 0.53533,-1.80073 -0.0626,-0.63814 -0.89787,-2.11042 z m 8.87128,11.49438 z m -8.00556,-14.11129 z" />
      <path
         id="path1776"
         style="font-style:normal;font-variant:normal;font-weight:bold;font-stretch:normal;font-size:26.6667px;font-family:sans-serif;-inkscape-font-specification:'sans-serif Bold'"
         d="m -443.45155,265.59248 0.57906,1.75595 -7.67918,2.53234 1.45171,4.40224 q 1.13977,-1.03397 2.10431,-1.35204 1.80541,-0.59537 3.44016,0.66163 1.64305,1.24055 2.28735,3.19435 0.61167,1.85487 0.006,4.59112 l -2.03692,-0.39772 q 0.8808,-3.73181 0.22835,-5.71034 -0.28953,-0.87798 -0.93478,-1.25475 -0.63288,-0.38085 -1.43666,-0.11579 -0.91507,0.30176 -2.95625,2.51046 l 2.47525,7.50606 -0.5441,0.17942 -1.9193,-1.12203 -1.65153,-5.00816 q -1.10228,0.89821 -2.06681,1.21628 -1.85487,0.61168 -3.733,-0.51022 -1.86576,-1.12598 -2.44074,-2.86956 l -1.00315,-3.04199 -1.68175,0.55459 -0.57906,-1.75595 z m -9.04156,4.92851 -4.8474,1.59852 1.61074,4.8845 q 0.4241,1.28605 0.89689,1.51403 0.48108,0.21154 1.07464,0.0158 1.06346,-0.3507 3.02268,-2.68319 z m 6.44338,13.01166 z m -5.081,-15.40783 z" />
      <path
         id="path1778"
         style="font-style:normal;font-variant:normal;font-weight:bold;font-stretch:normal;font-size:26.6667px;font-family:sans-serif;-inkscape-font-specification:'sans-serif Bold'"
         d="m -451.71692,268.59237 -0.55646,0.1835 q -1.68647,-0.5407 -3.09853,-0.62347 -1.41206,-0.0828 -2.53735,0.28831 -1.014,0.33438 -1.85133,0.78874 l -1.20418,-1.98854 q 0.33401,-0.15128 0.82865,-0.31439 1.26131,-0.41594 2.88714,-0.22542 1.60939,0.18222 4.47165,1.29493 -1.24483,-2.15338 -2.69989,-2.94862 -1.45915,-0.80762 -3.11617,-0.26119 -0.17312,0.0571 -0.42465,0.16746 l -1.65409,-1.64823 1.70649,-0.56274 q 1.86724,-0.61576 3.3907,0.67794 1.52347,1.29369 3.85802,5.17172 z m 0.5862,-0.46752 z" />
      <path
         id="path1780"
         style="font-style:normal;font-variant:normal;font-weight:bold;font-stretch:normal;font-size:26.6667px;font-family:sans-serif;-inkscape-font-specification:'sans-serif Bold'"
         d="m -434.10243,274.93002 q 1.21074,0.98468 2.20247,2.07525 1.00222,1.07542 1.78312,2.24391 l -0.5569,0.43181 q -0.86122,-1.24656 -1.86576,-2.3348 -1.00687,-1.10105 -2.15706,-2.04378 -0.99954,0.61793 -2.10137,0.81772 -0.84559,0.15332 -1.33343,-0.12875 -0.49016,-0.29489 -0.6249,-1.03798 -0.12312,-0.67903 0.18802,-1.07951 0.32164,-0.41562 1.09036,-0.555 0.90964,-0.16494 2.16705,0.63925 l 0.20956,0.13403 0.141,-0.17113 q 0.94506,-1.13738 1.47105,-2.6884 -2.28165,0.33432 -3.8186,-0.40596 -1.53694,-0.74027 -1.84591,-2.44426 -0.29503,-1.62712 0.56506,-2.86819 0.85776,-1.25388 2.31832,-1.51871 1.96023,-0.35543 3.35491,0.76793 1.40748,1.12104 1.79079,3.23501 0.35775,1.97304 -0.38611,3.70913 -0.74386,1.7361 -2.59167,3.22243 z m 1.14299,-8.29271 q -0.40421,-2.22928 -2.22351,-1.89941 -1.1787,0.21373 -1.71384,1.42235 -0.52465,1.19348 -0.25053,2.70529 0.38099,2.10116 2.77682,1.66674 0.58935,-0.10686 1.24754,-0.49087 0.44926,-1.82824 0.16352,-3.4041 z m 10.00901,-2.96614 -3.88202,0.7039 2.65064,14.61842 -0.49967,0.0906 -1.79748,-1.44732 -2.33934,-12.90163 -1.294,0.23463 -1.71357,-1.5684 8.54557,-1.54949 z m -1.31734,14.84828 z m -2.89455,-15.96368 z" />
      <path
         id="path1782"
         style="font-style:normal;font-variant:normal;font-weight:bold;font-stretch:normal;font-size:26.6667px;font-family:sans-serif;-inkscape-font-specification:'sans-serif Bold'"
         d="m -405.6903,260.85377 0.10568,1.84593 -3.95187,0.22625 0.84472,14.75451 -0.27299,0.0156 -1.86916,-1.66673 -0.41454,-7.24075 -4.21186,0.24113 q -0.92297,0.0528 -1.11087,0.41574 -0.17564,0.34915 -0.11387,1.42812 0.0313,0.54598 0.16021,1.20375 0.0606,0.37475 0.0851,0.80374 0.0335,0.58498 -0.46049,0.61326 -0.58498,0.0335 -1.85616,-1.66747 -1.25817,-1.7017 -1.31771,-2.74167 -0.0417,-0.72797 0.414,-1.1975 0.45493,-0.48252 1.09191,-0.51898 l 7.21476,-0.41306 -0.22402,-3.91287 -9.97066,0.57084 -0.10569,-1.84594 z m -3.02454,16.4237 z m -0.92733,-16.19745 z" />
      <path
         id="path1784"
         style="font-style:normal;font-variant:normal;font-weight:bold;font-stretch:normal;font-size:26.6667px;font-family:sans-serif;-inkscape-font-specification:'sans-serif Bold'"
         d="m -380.51951,264.7114 -3.92567,-0.50744 -1.89957,14.69547 -0.51653,-0.0668 -1.27596,-1.91111 0.49576,-3.83529 -6.02648,3.25167 -1.08646,-1.6503 6.26348,-3.15538 q -2.32388,-0.81243 -3.70376,-1.81793 -1.37989,-1.00551 -1.80084,-1.91332 -0.40636,-0.91905 -0.22943,-2.28787 l 0.32717,-2.53103 -1.93701,-0.25038 0.23702,-1.83371 15.31531,1.97969 z m -6.87659,6.47659 0.93642,-7.24442 -5.44946,-0.70441 -0.30046,2.32441 q -0.15356,1.18804 -0.006,1.87667 0.16022,0.6903 0.71576,1.47108 0.57011,0.76954 1.71887,1.43007 1.15044,0.64762 2.38512,0.8466 z m 1.10811,7.27238 z m 2.07983,-16.09011 z" />
      <path
         id="path1786"
         style="font-style:normal;font-variant:normal;font-weight:bold;font-stretch:normal;font-size:26.6667px;font-family:sans-serif;-inkscape-font-specification:'sans-serif Bold'"
         d="m -371.84837,263.95477 -0.2387,1.84662 -3.91276,-0.50578 -1.89956,14.69547 -0.50363,-0.0651 -1.29677,-1.95319 1.67255,-12.93924 -2.87969,-0.37224 0.23703,-1.8337 3.33166,0.43066 q -1.13575,-1.06586 -2.27828,-1.67306 -1.14252,-0.60721 -2.30473,-0.75744 -1.0589,-0.13687 -2.01037,-0.0892 l -0.22609,-2.31371 q 0.36658,0.008 0.88312,0.0748 1.31717,0.17026 2.70083,1.04496 1.37241,0.86012 3.47227,3.10093 -0.20439,-2.48158 -1.17262,-3.82775 -0.95365,-1.35741 -2.68405,-1.58109 -0.18078,-0.0234 -0.4553,-0.0326 l -0.77892,-2.20135 1.78206,0.23035 q 1.89827,0.24537 2.72436,1.98017 0.82776,1.72189 1.25166,6.16183 z" />
      <path
         id="path1788"
         style="font-style:normal;font-variant:normal;font-weight:bold;font-stretch:normal;font-size:26.6667px;font-family:sans-serif;-inkscape-font-specification:'sans-serif Bold'"
         d="m -358.95311,279.85611 q -1.9912,1.27738 -3.35907,1.64383 -1.35543,0.37032 -2.9473,-0.1234 -2.0147,-0.62486 -3.11577,-2.26147 -1.09721,-1.64904 -0.73464,-2.81806 0.24686,-0.79593 0.90373,-1.28748 -1.07999,-1.22108 -1.48069,-2.25875 -0.4007,-1.03767 -0.13841,-1.88335 0.31628,-1.01979 1.26737,-1.22922 0.95494,-0.22187 2.87015,0.37213 l 3.46976,1.07615 0.73672,-2.37536 -8.4319,-2.61515 0.54771,-1.76597 19.58739,6.07502 -0.54772,1.76597 -3.76824,-1.16872 -4.37016,14.09048 -0.52233,-0.162 -0.88074,-2.12721 z m 0.87172,-2.81063 2.05972,-6.64106 -3.8926,-1.20729 -1.0357,4.21848 -5.16112,-1.60072 q -1.23121,-0.38186 -1.9053,-0.31828 -0.66166,0.0675 -0.88923,0.8012 -0.13114,0.42284 0.17385,1.02184 0.31744,0.60286 1.08345,1.38575 0.96005,-0.37024 2.32806,0.0541 l 1.40532,0.43586 1.20968,2.29739 -2.17638,-0.675 q -1.23121,-0.38186 -1.97559,-0.13558 -0.74053,0.23383 -1.00282,1.07951 -0.23143,0.74619 0.15032,1.27357 0.38174,0.52738 1.37665,0.83595 1.52968,0.47443 3.5866,-0.22363 2.07322,-0.70663 4.66509,-2.60204 z" />
      <path
         id="path1790"
         style="font-style:normal;font-variant:normal;font-weight:bold;font-stretch:normal;font-size:26.6667px;font-family:sans-serif;-inkscape-font-specification:'sans-serif Bold'"
         d="m -341.61592,272.92286 -0.55157,1.77841 -3.76824,-1.16872 -4.38945,14.15266 -0.48502,-0.15042 -0.94292,-2.1465 3.86487,-12.46131 -2.77332,-0.86015 0.54771,-1.76597 3.2086,0.99515 q -0.93633,-1.2447 -1.95792,-2.03869 -1.02159,-0.79399 -2.14087,-1.14113 -1.01978,-0.31629 -1.96535,-0.43233 l 0.17369,-2.31823 q 0.35979,0.0707 0.85725,0.22498 1.26851,0.39343 2.48184,1.49228 1.20474,1.08255 2.8896,3.65002 0.22383,-2.4799 -0.49942,-3.97206 -0.70696,-1.50074 -2.37345,-2.0176 -0.17411,-0.054 -0.44299,-0.11013 l -0.3902,-2.30226 1.71623,0.53229 q 1.82815,0.567 2.34478,2.41769 0.52048,1.83826 0.17736,6.28517 z" />
      <path
         id="path1792"
         style="font-style:normal;font-variant:normal;font-weight:bold;font-stretch:normal;font-size:26.6667px;font-family:sans-serif;-inkscape-font-specification:'sans-serif Bold'"
         d="m -331.50153,278.09047 -0.83702,1.64865 -3.51789,-1.78603 -6.69026,13.17761 -0.52246,-0.26526 -0.54585,-2.14629 5.93576,-11.6915 -2.58908,-1.31447 0.83702,-1.64865 2.98383,1.51488 q -0.72679,-2.07752 0.11022,-3.72618 0.99028,-1.95051 3.53507,-1.95818 2.01483,7.2e-4 4.16272,1.09121 3.37858,1.71529 5.29854,4.83668 1.93747,3.11567 2.40471,7.63152 l -0.78949,-0.40082 q -0.8913,-3.73815 -2.75053,-6.31761 -1.85334,-2.59106 -4.66302,-4.01753 -2.12467,-1.07869 -3.54076,-0.90687 -1.4102,0.16022 -2.11754,1.55345 -0.63072,1.24229 -0.50051,2.79789 z" />
      <path
         id="path1794"
         style="font-style:normal;font-variant:normal;font-weight:bold;font-stretch:normal;font-size:26.6667px;font-family:sans-serif;-inkscape-font-specification:'sans-serif Bold'"
         d="m -317.3835,285.25815 -0.83701,1.64865 -3.5179,-1.78603 -6.69026,13.17761 -0.54568,-0.27704 -0.51084,-2.15773 5.92397,-11.66828 -3.86621,-1.96287 q -2.45962,6.05269 -2.86044,6.84218 -0.62482,1.23069 -1.2098,1.66383 -0.56748,0.42744 -0.99705,0.20934 -0.3367,-0.17094 -0.56622,-0.72555 -0.21202,-0.56033 -0.62891,-2.84559 -0.41688,-2.28526 -0.17521,-2.76128 0.26525,-0.52246 0.93865,-0.18058 0.20898,0.1061 0.59176,0.35885 0.38278,0.25275 0.6266,0.37653 0.88237,0.44799 1.21836,-0.2138 l 1.72709,-3.40179 -3.88943,-1.97466 0.83702,-1.64865 z m -10.86244,12.68031 z m 7.34455,-14.46635 z" />
      <path
         id="path1796"
         style="font-style:normal;font-variant:normal;font-weight:bold;font-stretch:normal;font-size:26.6667px;font-family:sans-serif;-inkscape-font-specification:'sans-serif Bold'"
         d="m -300.73137,297.03755 -1.08413,1.49777 -6.28641,-4.55031 -2.39731,3.31197 q 0.82444,0.0824 1.59442,0.63972 1.30791,0.94671 1.57157,2.82532 0.27421,1.88625 -1.02369,3.67935 -1.02306,1.41339 -3.03901,2.33312 l -0.34151,-2.01533 q 2.23594,-1.0016 3.16738,-2.28842 0.68713,-0.94929 0.65098,-1.69878 -0.0256,-0.74186 -0.76394,-1.2763 -1.05477,-0.76347 -2.99195,-0.57434 l -5.11528,7.06693 -0.42191,-0.30539 -0.21865,-2.29611 3.26004,-4.50385 q -2.34593,0.19867 -3.64329,-0.74041 -1.29737,-0.93907 -1.47184,-2.31913 -0.16683,-1.3906 0.75697,-2.66686 0.81692,-1.1286 1.98934,-1.26048 1.19059,-0.1348 2.13988,0.55233 1.8142,1.31318 1.98493,4.00859 l 2.65689,-3.67059 -6.7716,-4.9015 1.08414,-1.49777 z m -12.19494,0.12608 0.14506,-0.2004 q -0.28537,-1.31567 -1.55109,-2.23184 -1.30791,-0.9467 -2.4098,-0.95667 -1.08371,-0.0129 -1.55706,0.64108 -0.41228,0.56958 -0.31033,1.20596 0.12014,0.63347 0.77409,1.10683 1.21298,0.87799 4.90913,0.43504 z m -3.60436,8.466 z m 9.5129,-13.14239 z" />
      <path
         id="path1798"
         style="font-style:normal;font-variant:normal;font-weight:bold;font-stretch:normal;font-size:26.6667px;font-family:sans-serif;-inkscape-font-specification:'sans-serif Bold'"
         d="m -293.8121,302.04595 -1.08413,1.49777 -3.19595,-2.31333 -8.66544,11.97159 -0.47464,-0.34356 -0.20409,-2.20519 7.68819,-10.6215 -2.35213,-1.70255 1.08414,-1.49777 3.39634,2.45839 q 0.26225,-3.42682 -0.53101,-5.81736 -0.78271,-2.3829 -2.6391,-3.72662 -1.56105,-1.12994 -2.79966,-1.06205 -1.23862,0.0679 -2.15478,1.3336 -0.77111,1.06532 -1.13629,2.56912 l -1.26572,-0.91617 q 0.0818,-1.93395 1.12776,-3.37898 1.19102,-1.64544 3.33081,-1.55932 1.85068,0.0858 3.5805,1.33792 2.81623,2.03848 3.45909,5.23637 0.52092,2.61134 -0.35983,6.42631 z" />
      <path
         id="path1800"
         style="font-style:normal;font-variant:normal;font-weight:bold;font-stretch:normal;font-size:26.6667px;font-family:sans-serif;-inkscape-font-specification:'sans-serif Bold'"
         d="m -274.35608,321.72052 -1.33789,1.27621 -2.72317,-2.8548 -10.722,10.2276 -0.40443,-0.42399 0.19941,-2.20562 4.93702,-4.70937 q -1.94515,-0.69979 -2.64616,-1.43469 -0.97064,-1.01755 -1.73763,-2.85917 -1.7632,0.56623 -2.91312,0.51146 -0.24986,2.00182 -0.40884,3.66502 -0.14998,1.67263 -0.19967,2.99765 l -0.58098,0.0323 q 0.13881,-2.75964 0.31415,-4.72637 0.18478,-1.97573 0.40609,-3.15855 0.45206,-2.37465 1.27176,-3.15655 0.48051,-0.45835 0.92276,-0.46633 0.46066,-0.008 0.88307,0.43527 0.4943,0.5182 0.81206,1.49272 1.07251,-0.1773 2.21255,-1.26477 0.69721,-0.66507 1.11117,-1.81572 l -2.89392,-3.03381 1.33789,-1.27621 z m -5.47207,-3.05782 -3.9814,-4.17385 q -0.58051,1.18356 -1.60748,2.16318 -0.74433,0.71 -2.06107,1.48017 0.83208,1.81553 1.64993,2.67291 0.81785,0.85738 1.73656,0.95274 0.92814,0.0864 1.48403,-0.44388 z m -8.99064,11.40126 z m 11.73955,-11.19824 z" />
      <path
         id="path1802"
         style="font-style:normal;font-variant:normal;font-weight:bold;font-stretch:normal;font-size:26.6667px;font-family:sans-serif;-inkscape-font-specification:'sans-serif Bold'"
         d="m -275.70576,313.74071 2.44841,0.0578 -0.0578,2.44842 -2.44841,-0.0578 z m -1.37347,5.12502 z" />
      <path
         id="path1804"
         style="font-style:normal;font-variant:normal;font-weight:bold;font-stretch:normal;font-size:26.6667px;font-family:sans-serif;-inkscape-font-specification:'sans-serif Bold'"
         d="m -272.90225,337.27008 q -1.37185,-0.64049 -2.52053,-2.08936 -0.87364,-1.10195 -1.46923,-3.00592 -1.80755,0.40282 -2.94766,0.24326 -0.43164,1.97063 -0.74186,3.61236 -0.30213,1.65194 -0.47262,2.96689 l -0.5815,-0.0209 q 0.39026,-2.73542 0.74451,-4.67792 0.36444,-1.9506 0.69287,-3.10827 0.66705,-2.32343 1.55473,-3.02719 0.52036,-0.41256 0.9615,-0.38011 0.45943,0.0346 0.83962,0.51411 0.44491,0.56118 0.67234,1.56064 1.08422,-0.0786 2.31881,-1.05741 0.75504,-0.5986 1.27237,-1.70664 l -2.60475,-3.28544 1.44886,-1.14868 7.22372,9.1115 -1.44886,1.14868 -3.58355,-4.52004 q -1.00248,1.37636 -1.79834,2.00732 -0.80605,0.63905 -2.18763,1.28574 0.66278,1.88394 1.3989,2.81243 1.01925,1.28561 2.83021,1.4949 z m -6.22004,4.4993 z m 3.51075,4.42821 z" />
      <path
         id="path1806"
         style="font-style:normal;font-variant:normal;font-weight:bold;font-stretch:normal;font-size:26.6667px;font-family:sans-serif;-inkscape-font-specification:'sans-serif Bold'"
         d="m -256.16798,347.6728 -1.57695,0.96535 -2.06667,-3.37599 -12.58222,7.70245 -0.27873,-0.45532 0.61066,-2.14478 4.06451,-2.48817 q -2.72948,-0.81761 -3.80361,-2.57223 -0.63904,-1.04389 -0.42407,-3.23652 0.22176,-2.18153 0.98992,-4.19373 l 0.23321,-0.14276 q 1.31933,1.95566 3.03511,2.53887 1.72258,0.59432 2.91084,-0.1331 0.81068,-0.49627 1.04461,-1.31122 0.24503,-0.82174 -0.13567,-1.44363 -0.26514,-0.43311 -0.81651,-0.66045 -0.55138,-0.22734 -1.29543,0.22815 -1.055,0.64583 -1.05124,2.32289 l -0.58718,-0.23595 q -0.4633,-2.87664 1.41348,-4.02555 0.89953,-0.55066 1.59527,-0.41169 0.70685,0.13216 1.21672,0.96505 0.72062,1.17716 0.28604,3.53476 -0.43458,2.3576 -1.85605,3.22778 -0.93284,0.57106 -2.57134,0.13901 -1.62741,-0.43884 -3.46687,-2.1219 -0.49576,2.25766 0.25205,3.47923 0.65264,1.06611 2.76001,1.98974 2.12528,0.92794 3.6467,-0.003 l 3.74246,-2.29102 -1.29847,-2.12109 0.61838,-2.53119 z m -15.90379,5.09466 z m 13.83711,-8.47065 z" />
      <path
         id="path1808"
         style="font-style:normal;font-variant:normal;font-weight:bold;font-stretch:normal;font-size:26.6667px;font-family:sans-serif;-inkscape-font-specification:'sans-serif Bold'"
         d="m -251.70831,354.95783 -1.57694,0.96535 -2.05988,-3.36488 -12.63774,7.73643 -0.25154,-0.41089 0.72784,-2.27759 11.09411,-6.79147 -1.51601,-2.47647 1.57694,-0.96535 z m -2.05987,-3.36489 z" />
      <path
         id="path1810"
         style="font-style:normal;font-variant:normal;font-weight:bold;font-stretch:normal;font-size:26.6667px;font-family:sans-serif;-inkscape-font-specification:'sans-serif Bold'"
         d="m -244.74956,371.50178 -1.69556,0.7374 -1.57865,-3.62992 -13.55248,5.894 -0.10905,-0.25076 0.91766,-2.33015 6.65087,-2.89247 -1.68251,-3.86872 q -0.3687,-0.84778 -0.77418,-0.89862 -0.38835,-0.0441 -1.37941,0.38693 -0.50151,0.2181 -1.07412,0.56652 -0.3307,0.18642 -0.72473,0.35779 -0.53733,0.23368 -0.73466,-0.22006 -0.23368,-0.53732 0.92286,-2.31821 1.16174,-1.76895 2.11698,-2.18438 0.66867,-0.29081 1.26679,-0.0256 0.61005,0.26005 0.86451,0.84513 l 2.88208,6.62699 3.5941,-1.56308 -3.98299,-9.15837 1.69555,-0.7374 z m -16.45654,2.84049 z m 14.87788,-6.47041 z" />
    </g>
    <g
       style="font-style:normal;font-weight:normal;font-size:16.1057px;line-height:1.25;font-family:sans-serif;white-space:pre;fill:#000000;fill-opacity:1;stroke:none"
       id="text1745"
       transform="matrix(1.2569066,0.03639552,-0.03245894,1.0509455,-372.60947,344.86704)"
       aria-label="National Inistitute of Fashion Technology">
      <path
         id="path1813"
         style="font-style:normal;font-variant:normal;font-weight:bold;font-stretch:normal;font-size:16.1057px;font-family:sans-serif;-inkscape-font-specification:'sans-serif Bold'"
         d="m 307.12399,-170.10864 0.13738,-2.90648 8.26281,-4.58511 -8.02815,-0.37946 0.13069,-2.76508 11.6966,0.55285 -0.17042,3.6056 -6.90222,3.94874 6.70061,0.31671 -0.1307,2.76508 z" />
      <path
         id="path1815"
         style="font-style:normal;font-variant:normal;font-weight:bold;font-stretch:normal;font-size:16.1057px;font-family:sans-serif;-inkscape-font-specification:'sans-serif Bold'"
         d="m 309.92767,-162.08946 1.83522,-0.13526 q -0.0893,-0.56906 -0.22466,-1.22934 -0.12756,-0.66086 -0.26279,-0.99786 -0.16454,-0.41368 -0.44012,-0.62205 -0.26715,-0.2011 -0.68282,-0.17047 -0.2745,0.0202 -0.44358,0.08 -0.16907,0.0598 -0.31205,0.25956 -0.14357,0.19194 -0.2035,0.44869 -0.0521,0.25618 -0.0128,0.78949 0.0312,0.42351 0.23554,0.84215 0.20492,0.42649 0.51154,0.73508 z m -1.36466,0.10057 q -0.1893,-0.21472 -0.45729,-0.53405 -0.26798,-0.31932 -0.43112,-0.60694 -0.21886,-0.4018 -0.33808,-0.84249 -0.12706,-0.4401 -0.16636,-0.97341 -0.0925,-1.25486 0.62153,-2.15911 0.71401,-0.90425 1.92181,-0.99327 0.96467,-0.0711 1.6082,0.31518 0.64354,0.38627 1.05484,1.15239 0.41073,0.75827 0.64529,1.90803 0.23456,1.14975 0.39706,2.39156 l 0.0471,-0.003 q 0.72939,-0.0538 0.95996,-0.67005 0.23841,-0.61686 0.15286,-1.7776 -0.0514,-0.69801 -0.36079,-1.47164 -0.30151,-0.77421 -0.46027,-1.10947 l -0.0191,-0.25881 2.12541,-0.15665 q 0.15059,0.43837 0.38144,1.4307 0.23926,0.99958 0.31383,2.01131 0.17745,2.40775 -0.48901,3.52929 -0.65804,1.1288 -2.24229,1.24556 l -5.99193,0.44161 -0.20636,-2.79989 z" />
      <path
         id="path1817"
         style="font-style:normal;font-variant:normal;font-weight:bold;font-stretch:normal;font-size:16.1057px;font-family:sans-serif;-inkscape-font-specification:'sans-serif Bold'"
         d="m 309.22007,-150.98312 q -0.19059,-0.43085 -0.33582,-0.92497 -0.153,-0.49285 -0.27326,-1.22223 -0.26866,-1.62946 0.25911,-2.53742 0.52905,-0.9002 2.12748,-1.16374 l 4.07365,-0.67167 -0.18934,-1.14838 1.89328,-0.31216 0.18934,1.14838 2.49076,-0.41067 0.46056,2.79336 -2.49075,0.41068 0.43115,2.6149 -1.89328,0.31216 -0.43115,-2.6149 -3.08822,0.50918 q -0.4578,0.0755 -0.79793,0.13954 -0.34013,0.0641 -0.59252,0.22522 -0.25367,0.1534 -0.37184,0.45185 -0.10913,0.30492 -0.0221,0.83256 0.0358,0.21726 0.18651,0.55108 0.15196,0.34158 0.25258,0.46845 l 0.0384,0.23278 z" />
      <path
         id="path1819"
         style="font-style:normal;font-variant:normal;font-weight:bold;font-stretch:normal;font-size:16.1057px;font-family:sans-serif;-inkscape-font-specification:'sans-serif Bold'"
         d="m 310.16565,-146.57138 -0.63702,-2.75848 8.60493,-1.98715 0.63702,2.75849 z m 9.84861,-2.19364 -0.6724,-2.91173 2.09184,-0.48307 0.67241,2.91173 z" />
      <path
         id="path1821"
         style="font-style:normal;font-variant:normal;font-weight:bold;font-stretch:normal;font-size:16.1057px;font-family:sans-serif;-inkscape-font-specification:'sans-serif Bold'"
         d="m 317.70904,-136.69782 q -2.07558,0.66124 -3.66118,-0.1707 -1.57573,-0.82682 -2.27277,-3.0148 -0.69704,-2.18797 0.10764,-3.7814 0.81456,-1.58832 2.89013,-2.24956 2.09056,-0.66601 3.66867,0.16831 1.5805,0.84182 2.27277,3.0148 0.70182,2.20296 -0.11513,3.78379 -0.81456,1.58832 -2.89013,2.24956 z m -3.10311,-2.66774 q 0.40575,0.15961 0.89592,0.14377 0.50004,-0.0107 1.3018,-0.26616 0.74181,-0.23633 1.20088,-0.53114 0.45906,-0.29482 0.6824,-0.63008 0.23082,-0.33765 0.25079,-0.71542 0.02,-0.37777 -0.10417,-0.76741 -0.12414,-0.38963 -0.32691,-0.66343 -0.20039,-0.2663 -0.60342,-0.44329 -0.37101,-0.15417 -0.92828,-0.1417 -0.55488,0.0199 -1.32666,0.26583 -0.68936,0.21961 -1.15831,0.50932 -0.46145,0.28732 -0.68989,0.63246 -0.21584,0.33288 -0.24569,0.70554 -0.0274,0.38016 0.10862,0.80726 0.11697,0.36716 0.34189,0.65866 0.2348,0.29661 0.60103,0.43579 z" />
      <path
         id="path1823"
         style="font-style:normal;font-variant:normal;font-weight:bold;font-stretch:normal;font-size:16.1057px;font-family:sans-serif;-inkscape-font-specification:'sans-serif Bold'"
         d="m 317.85882,-125.34145 -1.15535,-2.60182 4.00336,-1.77771 q 0.48874,-0.21703 0.94795,-0.48118 0.4664,-0.26733 0.64214,-0.49165 0.2021,-0.26183 0.19981,-0.5964 9.1e-4,-0.32737 -0.21931,-0.8233 -0.15639,-0.35218 -0.43416,-0.66767 -0.27457,-0.30831 -0.71443,-0.62065 l -5.72114,2.54049 -1.14897,-2.58745 8.0714,-3.58414 1.14897,2.58745 -0.89123,0.39576 q 0.84544,0.45061 1.4138,0.95544 0.57154,0.51201 0.91623,1.28824 0.58087,1.3081 0.14455,2.37952 -0.43313,1.07861 -1.94966,1.75203 z" />
      <path
         id="path1825"
         style="font-style:normal;font-variant:normal;font-weight:bold;font-stretch:normal;font-size:16.1057px;font-family:sans-serif;-inkscape-font-specification:'sans-serif Bold'"
         d="m 323.73986,-119.54325 1.59324,-0.92084 q -0.32812,-0.47342 -0.73751,-1.00888 -0.40258,-0.53938 -0.67105,-0.78387 -0.32825,-0.30077 -0.66706,-0.36837 -0.32806,-0.0647 -0.68892,0.14385 -0.23831,0.13774 -0.36449,0.26516 -0.12618,0.12743 -0.1679,0.36954 -0.0457,0.23531 0.0122,0.49254 0.0647,0.25329 0.33224,0.71628 0.2125,0.36767 0.57873,0.65558 0.37016,0.29471 0.78055,0.43901 z m -1.18471,0.68472 q -0.26391,-0.11087 -0.6442,-0.28166 -0.38028,-0.17078 -0.65237,-0.35868 -0.37198,-0.26641 -0.67118,-0.61122 -0.30601,-0.34088 -0.5736,-0.80387 -0.62964,-1.08939 -0.38058,-2.21432 0.24906,-1.12492 1.2976,-1.73094 0.83747,-0.48403 1.58499,-0.4165 0.74751,0.0675 1.45136,0.57813 0.69991,0.50379 1.41169,1.43671 0.71177,0.93291 1.39875,1.98008 l 0.0409,-0.0236 q 0.63321,-0.36597 0.57244,-1.02117 -0.054,-0.65913 -0.63637,-1.66681 -0.35024,-0.60598 -0.96557,-1.16773 -0.60852,-0.56569 -0.89742,-0.79837 l -0.12986,-0.22469 1.84516,-1.06644 q 0.32643,0.32907 0.96631,1.12188 0.65063,0.79568 1.15827,1.674 1.2081,2.09028 1.09646,3.3901 -0.10089,1.30271 -1.47625,2.09762 l -5.20185,3.00649 -1.40487,-2.43071 z" />
      <path
         id="path1827"
         style="font-style:normal;font-variant:normal;font-weight:bold;font-stretch:normal;font-size:16.1057px;font-family:sans-serif;-inkscape-font-specification:'sans-serif Bold'"
         d="m 326.22677,-111.47545 -1.59991,-2.33565 10.0952,-6.91521 1.59992,2.33566 z" />
      <path
         id="path1829"
         style="font-style:normal;font-variant:normal;font-weight:bold;font-stretch:normal;font-size:16.1057px;font-family:sans-serif;-inkscape-font-specification:'sans-serif Bold'"
         d="m 335.4298,-100.06568 -4.51087,-5.16502 1.56373,-1.36567 1.26221,1.44525 5.69219,-4.97126 -1.26222,-1.44526 1.56373,-1.36567 4.51086,5.16502 -1.56372,1.36567 -1.26222,-1.44525 -5.69218,4.97126 1.26221,1.44526 z" />
      <path
         id="path1831"
         style="font-style:normal;font-variant:normal;font-weight:bold;font-stretch:normal;font-size:16.1057px;font-family:sans-serif;-inkscape-font-specification:'sans-serif Bold'"
         d="m 343.43517,-92.244384 -2.06309,-1.961618 3.01829,-3.174435 q 0.36848,-0.387543 0.69165,-0.807319 0.32858,-0.425475 0.4051,-0.699968 0.0865,-0.319246 -0.0436,-0.627466 -0.12445,-0.302802 -0.51769,-0.6767 -0.27926,-0.26552 -0.65662,-0.4507 -0.37166,-0.17975 -0.89757,-0.29999 l -4.31339,4.536532 -2.0517,-1.950781 6.08535,-6.400161 2.0517,1.95078 -0.67194,0.7067 q 0.95353,0.0928 1.67181,0.34166 0.72398,0.25431 1.33949,0.83954 1.03725,0.986229 1.04417,2.143061 0.0126,1.162252 -1.13076,2.364776 z" />
      <path
         id="path1833"
         style="font-style:normal;font-variant:normal;font-weight:bold;font-stretch:normal;font-size:16.1057px;font-family:sans-serif;-inkscape-font-specification:'sans-serif Bold'"
         d="m 347.67041,-88.819404 -2.19565,-1.787217 5.57512,-6.849202 2.19565,1.787217 z m 6.43043,-7.775401 -2.31763,-1.886506 1.35531,-1.665029 2.31763,1.886502 z" />
      <path
         id="path1835"
         style="font-style:normal;font-variant:normal;font-weight:bold;font-stretch:normal;font-size:16.1057px;font-family:sans-serif;-inkscape-font-specification:'sans-serif Bold'"
         d="m 357.6434,-85.002578 q -0.78992,1.117331 -2.27742,1.096224 -1.48296,-0.02753 -3.22317,-1.2578 -0.96321,-0.680962 -1.61952,-1.414612 -0.6563,-0.73365 -0.97713,-1.287921 l 1.34376,-1.900746 0.21191,0.149811 q 0.0871,0.244581 0.20746,0.551165 0.1313,0.304703 0.43066,0.766744 0.25518,0.401919 0.63393,0.833406 0.38329,0.425066 0.90342,0.792785 0.68068,0.481214 1.11258,0.565048 0.43645,0.07741 0.64528,-0.217974 0.18613,-0.263279 0.0752,-0.515057 -0.10639,-0.2582 -0.56861,-0.748704 -0.216,-0.239383 -0.61368,-0.61684 -0.38672,-0.379339 -0.67823,-0.729886 -0.80089,-0.95144 -0.89474,-1.826782 -0.0893,-0.881764 0.4827,-1.690866 0.73544,-1.040274 2.20368,-1.032786 1.47919,0.0056 3.1873,1.213179 0.8091,0.572009 1.42953,1.261037 0.63139,0.687147 0.91713,1.168453 l -1.28928,1.823689 -0.19907,-0.140732 q -0.26403,-0.716359 -0.77109,-1.402282 -0.49609,-0.687805 -1.17034,-1.164479 -0.55867,-0.394958 -1.05291,-0.513229 -0.48782,-0.11373 -0.68757,0.168813 -0.18159,0.256858 -0.10354,0.514281 0.078,0.257424 0.62485,0.846249 0.30324,0.320322 0.65786,0.676962 0.36557,0.354759 0.70391,0.748046 0.74387,0.882238 0.81735,1.704656 0.078,0.815997 -0.46221,1.580148 z" />
      <path
         id="path1837"
         style="font-style:normal;font-variant:normal;font-weight:bold;font-stretch:normal;font-size:16.1057px;font-family:sans-serif;-inkscape-font-specification:'sans-serif Bold'"
         d="m 362.53443,-78.911145 q -0.4519,-0.133201 -0.92274,-0.341914 -0.47488,-0.201967 -1.10903,-0.581847 -1.41672,-0.84867 -1.76807,-1.838356 -0.34461,-0.985644 0.48789,-2.375378 l 2.12167,-3.541796 -0.99845,-0.59811 0.98608,-1.646092 0.99845,0.59811 1.29725,-2.165555 2.42866,1.454862 -1.29725,2.165556 2.27349,1.361912 -0.98607,1.646092 -2.2735,-1.361913 -1.60843,2.685019 q -0.23843,0.398031 -0.4095,0.698908 -0.17107,0.300878 -0.21132,0.597617 -0.047,0.292697 0.10425,0.575814 0.16204,0.280412 0.62079,0.555219 0.1889,0.113156 0.54097,0.214059 0.35883,0.104943 0.52067,0.110224 l 0.20239,0.121238 z" />
      <path
         id="path1839"
         style="font-style:normal;font-variant:normal;font-weight:bold;font-stretch:normal;font-size:16.1057px;font-family:sans-serif;-inkscape-font-specification:'sans-serif Bold'"
         d="m 366.49749,-76.754118 -2.50793,-1.31352 4.09746,-7.823327 2.50792,1.31352 z m 4.7509,-8.901473 -2.64725,-1.386493 0.99609,-1.901842 2.64725,1.386494 z" />
      <path
         id="path1841"
         style="font-style:normal;font-variant:normal;font-weight:bold;font-stretch:normal;font-size:16.1057px;font-family:sans-serif;-inkscape-font-specification:'sans-serif Bold'"
         d="m 374.06539,-73.299274 q -0.46414,-0.0808 -0.95571,-0.234469 -0.49481,-0.146502 -1.16814,-0.451597 -1.50425,-0.681596 -1.96616,-1.624764 -0.45475,-0.939922 0.21386,-2.415517 l 1.70399,-3.760617 -1.06014,-0.480363 0.79195,-1.747792 1.06014,0.480363 1.04187,-2.299349 2.57871,1.168449 -1.04187,2.299349 2.41396,1.093798 -0.79195,1.747792 -2.41396,-1.093798 -1.29179,2.850906 q -0.19149,0.422622 -0.32714,0.741043 -0.13565,0.318421 -0.1418,0.617814 -0.0133,0.296148 0.16923,0.560172 0.19296,0.260106 0.68005,0.480813 0.20057,0.09088 0.56185,0.150979 0.36845,0.06334 0.52985,0.05014 l 0.21489,0.09737 z" />
      <path
         id="path1843"
         style="font-style:normal;font-variant:normal;font-weight:bold;font-stretch:normal;font-size:16.1057px;font-family:sans-serif;-inkscape-font-specification:'sans-serif Bold'"
         d="m 383.86987,-69.600814 -2.66682,-0.950307 0.32732,-0.918572 q -0.9414,0.299022 -1.66184,0.376237 -0.7178,0.06981 -1.5697,-0.233764 -1.37786,-0.490992 -1.8436,-1.550244 -0.45833,-1.056612 0.0934,-2.60485 l 1.92965,-5.415126 2.68163,0.955586 -1.47033,4.126164 q -0.22438,0.629666 -0.33781,1.065111 -0.10337,0.430677 -0.0529,0.757562 0.0431,0.324245 0.2797,0.550488 0.24403,0.228883 0.75517,0.411025 0.34076,0.121428 0.80048,0.143321 0.45971,0.02189 0.93203,-0.0853 l 2.10123,-5.896636 2.66682,0.950307 z" />
      <path
         id="path1845"
         style="font-style:normal;font-variant:normal;font-weight:bold;font-stretch:normal;font-size:16.1057px;font-family:sans-serif;-inkscape-font-specification:'sans-serif Bold'"
         d="m 391.93662,-67.512473 q -0.47112,-0.0032 -0.98129,-0.07369 -0.5122,-0.06291 -1.22661,-0.25282 -1.59604,-0.424254 -2.20714,-1.278357 -0.6035,-0.852082 -0.18732,-2.41772 l 1.06063,-3.990096 -1.12482,-0.298999 0.49294,-1.854444 1.12483,0.298998 0.6485,-2.439659 2.73607,0.727293 -0.64851,2.439659 2.56126,0.680828 -0.49294,1.854445 -2.56126,-0.680828 -0.80406,3.024873 q -0.1192,0.448411 -0.20049,0.78484 -0.0813,0.336428 -0.038,0.632738 0.0357,0.29429 0.25928,0.524603 0.2332,0.224733 0.75001,0.362111 0.21281,0.05657 0.57906,0.05628 0.37385,0.0017 0.53085,-0.03791 l 0.22801,0.06061 z" />
      <path
         id="path1847"
         style="font-style:normal;font-variant:normal;font-weight:bold;font-stretch:normal;font-size:16.1057px;font-family:sans-serif;-inkscape-font-specification:'sans-serif Bold'"
         d="m 402.81357,-69.299412 -6.3734,-1.170693 q -0.12566,1.032348 0.48648,1.704486 0.61988,0.673559 2.01213,0.929293 0.88175,0.161965 1.76762,-0.0031 0.88586,-0.165103 1.43219,-0.440548 l 0.30939,0.05683 -0.4106,2.235331 q -1.01325,0.20567 -1.87985,0.222394 -0.86661,0.01672 -1.87986,-0.169395 -2.61433,-0.480211 -3.79062,-1.911621 -1.1763,-1.43141 -0.77707,-3.604863 0.39497,-2.150249 1.94003,-3.161746 1.55422,-1.01781 3.85142,-0.595849 2.11932,0.389284 2.98922,1.660471 0.87133,1.263453 0.50194,3.274477 z m -2.46925,-2.14065 q 0.13734,-0.878284 -0.19161,-1.394462 -0.32896,-0.516178 -1.19525,-0.675301 -0.80441,-0.147757 -1.39935,0.174727 -0.59495,0.322484 -0.8259,1.231549 z" />
      <path
         id="path1849"
         style="font-style:normal;font-variant:normal;font-weight:bold;font-stretch:normal;font-size:16.1057px;font-family:sans-serif;-inkscape-font-specification:'sans-serif Bold'"
         d="m 418.78091,-68.705724 q -0.0897,2.176513 -1.41434,3.381274 -1.31651,1.197226 -3.61089,1.102721 -2.29437,-0.09451 -3.51582,-1.396272 -1.21326,-1.309299 -1.12361,-3.485812 0.0903,-2.192228 1.41466,-3.389131 1.33223,-1.19658 3.61089,-1.102721 2.31009,0.09515 3.5155,1.404128 1.21326,1.3093 1.12361,3.485813 z m -3.56921,2.001707 q 0.28893,-0.326543 0.44193,-0.792488 0.16117,-0.473479 0.1958,-1.314225 0.0321,-0.777888 -0.0877,-1.310163 -0.11975,-0.532274 -0.35825,-0.856929 -0.23816,-0.332512 -0.58625,-0.480653 -0.34808,-0.148141 -0.75667,-0.164971 -0.40859,-0.01683 -0.73527,0.0799 -0.31883,0.09706 -0.62315,0.415096 -0.27192,0.29576 -0.45108,0.823594 -0.17129,0.528157 -0.20463,1.337474 -0.0298,0.722885 0.0818,1.262694 0.11189,0.531951 0.35792,0.864787 0.23882,0.316797 0.57872,0.472472 0.34776,0.155998 0.79563,0.174446 0.38502,0.01586 0.73592,-0.09562 0.35909,-0.119012 0.61529,-0.415419 z" />
      <path
         id="path1851"
         style="font-style:normal;font-variant:normal;font-weight:bold;font-stretch:normal;font-size:16.1057px;font-family:sans-serif;-inkscape-font-specification:'sans-serif Bold'"
         d="m 425.99953,-74.760787 -0.21219,0.0077 q -0.19061,-0.04815 -0.49968,-0.107733 -0.30121,-0.05987 -0.647,-0.04729 -0.83305,0.0303 -1.12083,0.339802 -0.27991,0.309216 -0.24876,1.165837 l 0.003,0.07073 2.18478,-0.07947 0.0697,1.917575 -2.09047,0.07604 0.25127,6.907986 -2.82921,0.102907 -0.25127,-6.907985 -1.21027,0.04402 -0.0697,-1.917575 1.21028,-0.04402 -0.009,-0.243627 q -0.0589,-1.618936 0.7683,-2.459562 0.83503,-0.840912 2.57971,-0.904372 0.62872,-0.02287 1.14126,0.0057 0.51226,0.02071 0.90778,0.07715 z" />
      <path
         id="path1853"
         style="font-style:normal;font-variant:normal;font-weight:bold;font-stretch:normal;font-size:16.1057px;font-family:sans-serif;-inkscape-font-specification:'sans-serif Bold'"
         d="m 439.84524,-75.928529 -5.31751,0.861984 0.34857,2.15029 4.92936,-0.799065 0.36242,2.23568 -4.92937,0.799065 0.80032,4.937128 -2.96538,0.480698 -1.87371,-11.558779 8.28288,-1.342681 z" />
      <path
         id="path1855"
         style="font-style:normal;font-variant:normal;font-weight:bold;font-stretch:normal;font-size:16.1057px;font-family:sans-serif;-inkscape-font-specification:'sans-serif Bold'"
         d="m 447.83544,-70.609521 -0.46407,-1.780727 q -0.54363,0.190433 -1.16866,0.442713 -0.62701,0.24467 -0.93408,0.43847 -0.37723,0.236461 -0.53247,0.545101 -0.14961,0.299048 -0.0445,0.702375 0.0694,0.266347 0.15871,0.421867 0.0893,0.15552 0.31159,0.260122 0.21469,0.106586 0.47804,0.119223 0.26137,0.005 0.77884,-0.129829 0.41094,-0.107092 0.78586,-0.383586 0.38252,-0.278477 0.63075,-0.635729 z m 0.34507,1.32413 q -0.17706,0.224931 -0.44281,0.546116 -0.26575,0.321185 -0.51923,0.533525 -0.35573,0.287748 -0.76768,0.484499 -0.40997,0.204361 -0.92744,0.339217 -1.21759,0.31731 -2.2358,-0.22189 -1.01821,-0.5392 -1.32362,-1.711131 -0.24393,-0.936023 0.0199,-1.638673 0.26386,-0.702651 0.94322,-1.2454 0.67175,-0.540766 1.76034,-0.978867 1.0886,-0.4381 2.28073,-0.821917 l -0.0119,-0.04566 q -0.18444,-0.707725 -0.83221,-0.823351 -0.64975,-0.123235 -1.77602,0.170276 -0.67728,0.176504 -1.38242,0.620324 -0.70713,0.43621 -1.00825,0.652839 l -0.25113,0.06544 -0.53744,-2.062294 q 0.40401,-0.227191 1.33842,-0.633237 0.94004,-0.41564 1.92172,-0.671471 2.33625,-0.608839 3.55961,-0.155608 1.22898,0.443638 1.62958,1.980846 l 1.51516,5.813996 -2.71675,0.707998 z" />
      <path
         id="path1857"
         style="font-style:normal;font-variant:normal;font-weight:bold;font-stretch:normal;font-size:16.1057px;font-family:sans-serif;-inkscape-font-specification:'sans-serif Bold'"
         d="m 459.88799,-75.122016 q 0.46363,1.287418 -0.40551,2.494773 -0.87179,1.199957 -2.87691,1.922045 -1.10984,0.39968 -2.08712,0.517583 -0.97728,0.117902 -1.6154,0.06351 l -0.7887,-2.19009 0.24417,-0.08793 q 0.2504,0.06864 0.57064,0.145555 0.32498,0.06685 0.87519,0.08603 0.47563,0.02096 1.04625,-0.04244 0.56796,-0.0708 1.16728,-0.286626 0.78429,-0.282441 1.10035,-0.588508 0.3134,-0.313466 0.19083,-0.653818 -0.10925,-0.303357 -0.37918,-0.356602 -0.27259,-0.06064 -0.9394,0.03739 -0.31994,0.03999 -0.85711,0.149855 -0.53244,0.0998 -0.98675,0.138029 -1.23862,0.111715 -2.00997,-0.312621 -0.77401,-0.431736 -1.10974,-1.364004 -0.43165,-1.19863 0.41528,-2.397992 0.85167,-1.209425 2.81979,-1.918191 0.93227,-0.335731 1.85243,-0.449779 0.92489,-0.124113 1.4831,-0.08274 l 0.75672,2.101303 -0.22936,0.0826 q -0.73847,-0.19378 -1.59116,-0.170898 -0.84795,0.01282 -1.62484,0.292595 -0.64371,0.231815 -1.0237,0.569262 -0.37259,0.334782 -0.25535,0.660336 0.10659,0.295958 0.36231,0.379394 0.25573,0.08343 1.05158,-0.02764 0.43625,-0.06516 0.9317,-0.151638 0.50017,-0.09654 1.01634,-0.148687 1.14924,-0.104603 1.86553,0.306125 0.71363,0.403329 1.03071,1.283804 z" />
      <path
         id="path1859"
         style="font-style:normal;font-variant:normal;font-weight:bold;font-stretch:normal;font-size:16.1057px;font-family:sans-serif;-inkscape-font-specification:'sans-serif Bold'"
         d="m 470.61379,-76.984788 -2.57538,1.213157 -1.86665,-3.962666 q -0.22789,-0.483772 -0.50222,-0.936972 -0.27769,-0.460313 -0.50587,-0.630999 -0.26628,-0.196204 -0.60071,-0.186448 -0.32732,0.0064 -0.81821,0.237642 -0.3486,0.164211 -0.65781,0.448955 -0.30209,0.281392 -0.60454,0.728117 l 2.6676,5.662984 -2.56114,1.206454 -5.21457,-11.069853 2.56115,-1.206455 1.86665,3.962666 q 0.43163,-0.855293 0.92364,-1.434777 0.49912,-0.582834 1.26747,-0.94477 1.2948,-0.60993 2.37569,-0.197643 1.08801,0.408936 1.79513,1.910054 z" />
      <path
         id="path1861"
         style="font-style:normal;font-variant:normal;font-weight:bold;font-stretch:normal;font-size:16.1057px;font-family:sans-serif;-inkscape-font-specification:'sans-serif Bold'"
         d="m 475.34054,-79.691217 -2.46102,1.399436 -4.36546,-7.676997 2.46101,-1.399437 z m -4.91908,-8.809655 -2.59774,1.477183 -1.06123,-1.866269 2.59773,-1.477183 z" />
      <path
         id="path1863"
         style="font-style:normal;font-variant:normal;font-weight:bold;font-stretch:normal;font-size:16.1057px;font-family:sans-serif;-inkscape-font-specification:'sans-serif Bold'"
         d="m 482.69501,-89.712972 q 1.21674,1.806877 0.86282,3.562152 -0.3518,1.74436 -2.25652,3.026984 -1.90472,1.282623 -3.65986,0.957055 -1.75302,-0.336484 -2.96975,-2.14336 -1.22552,-1.819923 -0.86721,-3.568675 0.36484,-1.753145 2.25652,-3.026984 1.91776,-1.291408 3.66425,-0.950532 1.75302,0.336484 2.96975,2.14336 z m -1.69053,3.726682 q 0.0394,-0.434229 -0.11324,-0.900283 -0.15053,-0.47697 -0.62053,-1.174933 -0.43486,-0.645779 -0.84658,-1.003756 -0.41171,-0.357976 -0.79615,-0.478336 -0.38883,-0.126882 -0.75704,-0.04011 -0.36821,0.08677 -0.70741,0.315186 -0.33919,0.228412 -0.54514,0.499829 -0.19943,0.267024 -0.25629,0.703515 -0.0439,0.399351 0.12428,0.930768 0.17476,0.527023 0.62719,1.198894 0.40411,0.600118 0.8137,0.96901 0.40519,0.362369 0.80054,0.484859 0.38005,0.113837 0.74613,0.03798 0.3726,-0.08025 0.74441,-0.330625 0.31963,-0.215235 0.53636,-0.512875 0.21886,-0.308556 0.24977,-0.699123 z" />
      <path
         id="path1865"
         style="font-style:normal;font-variant:normal;font-weight:bold;font-stretch:normal;font-size:16.1057px;font-family:sans-serif;-inkscape-font-specification:'sans-serif Bold'"
         d="m 493.59155,-92.994196 -2.18358,1.826552 -2.81047,-3.359819 q -0.34311,-0.410176 -0.7234,-0.778999 -0.38533,-0.374856 -0.64934,-0.482102 -0.30733,-0.122269 -0.62835,-0.02803 -0.315,0.08919 -0.7312,0.437349 -0.29557,0.24724 -0.52247,0.601084 -0.22087,0.348798 -0.40016,0.857615 l 4.0164,4.801465 -2.17152,1.816461 -5.66635,-6.773926 2.17152,-1.816461 0.62567,0.747967 q 0.20064,-0.936789 0.52963,-1.622092 0.33502,-0.690349 0.98647,-1.235287 1.09783,-0.918322 2.24793,-0.793594 1.15615,0.119681 2.22079,1.392431 z" />
      <path
         id="path1867"
         style="font-style:normal;font-variant:normal;font-weight:bold;font-stretch:normal;font-size:16.1057px;font-family:sans-serif;-inkscape-font-specification:'sans-serif Bold'"
         d="m 498.38583,-111.92461 -2.40276,2.75663 7.1198,6.20585 -1.98422,2.27644 -7.1198,-6.20585 -2.40277,2.75663 -1.70733,-1.48817 6.78975,-7.78969 z" />
      <path
         id="path1869"
         style="font-style:normal;font-variant:normal;font-weight:bold;font-stretch:normal;font-size:16.1057px;font-family:sans-serif;-inkscape-font-specification:'sans-serif Bold'"
         d="m 508.30768,-116.42002 -3.72755,5.30057 q 0.88531,0.54567 1.75178,0.27052 0.871,-0.28158 1.68527,-1.43947 0.51571,-0.73333 0.736,-1.60711 0.2203,-0.87378 0.19843,-1.48522 l 0.18095,-0.25731 1.85906,1.30736 q -0.23669,1.00645 -0.58373,1.80071 -0.34704,0.79426 -0.93965,1.63695 -1.52902,2.17426 -3.32107,2.64455 -1.79205,0.47028 -3.59965,-0.80088 -1.7883,-1.2576 -2.06137,-3.08401 -0.27497,-1.83737 1.06857,-3.74789 1.23951,-1.76257 2.75793,-2.02149 1.51199,-0.26344 3.18451,0.91273 z m -2.9768,1.34841 q -0.74047,-0.49188 -1.3469,-0.4088 -0.60642,0.0831 -1.11308,0.80355 -0.47047,0.669 -0.42619,1.34428 0.0443,0.67527 0.77358,1.26506 z" />
      <path
         id="path1871"
         style="font-style:normal;font-variant:normal;font-weight:bold;font-stretch:normal;font-size:16.1057px;font-family:sans-serif;-inkscape-font-specification:'sans-serif Bold'"
         d="m 514.98003,-119.79543 q -0.56901,1.00629 -1.28084,1.70597 -0.70796,0.69283 -1.55606,1.02635 -0.84422,0.32669 -1.79374,0.23246 -0.94953,-0.0942 -1.96951,-0.67098 -1.07474,-0.60772 -1.65385,-1.40496 -0.57524,-0.80408 -0.7248,-1.73787 -0.13378,-0.89777 0.10094,-1.84012 0.23472,-0.94236 0.73019,-1.81858 0.44514,-0.78724 0.99175,-1.35448 0.5466,-0.56725 1.14557,-0.98744 l 2.10157,1.18834 -0.19741,0.34912 q -0.2045,0.0741 -0.48492,0.18655 -0.27655,0.10562 -0.60044,0.31095 -0.3093,0.19551 -0.59481,0.47675 -0.29235,0.27736 -0.54395,0.72232 -0.5574,0.98576 -0.22953,1.87582 0.32489,0.87935 1.39963,1.48707 1.10898,0.62707 1.98979,0.41142 0.88469,-0.22249 1.44983,-1.22194 0.26321,-0.4655 0.36955,-0.89322 0.10337,-0.43843 0.099,-0.76616 -0.005,-0.31016 -0.0553,-0.5733 -0.05,-0.26314 -0.10856,-0.49503 l 0.19741,-0.34912 2.10158,1.18833 q -0.0552,0.73671 -0.25774,1.46237 -0.19182,0.72268 -0.62535,1.48938 z" />
      <path
         id="path1873"
         style="font-style:normal;font-variant:normal;font-weight:bold;font-stretch:normal;font-size:16.1057px;font-family:sans-serif;-inkscape-font-specification:'sans-serif Bold'"
         d="m 520.6453,-132.32612 -1.13809,2.60941 -4.01504,-1.75115 q -0.49017,-0.21379 -0.99514,-0.37397 -0.51217,-0.16333 -0.79628,-0.14139 -0.32959,0.0278 -0.57474,0.25552 -0.24201,0.22047 -0.45894,0.71785 -0.15406,0.3532 -0.19906,0.77113 -0.0419,0.41072 0.0249,0.94605 l 5.73783,2.50255 -1.1318,2.595 -11.21617,-4.89192 1.1318,-2.595 4.01505,1.75116 q -0.23881,-0.9278 -0.25048,-1.68789 -0.009,-0.76729 0.33101,-1.54579 0.57219,-1.31192 1.65695,-1.71392 1.08791,-0.4092 2.60887,0.25416 z" />
      <path
         id="path1875"
         style="font-style:normal;font-variant:normal;font-weight:bold;font-stretch:normal;font-size:16.1057px;font-family:sans-serif;-inkscape-font-specification:'sans-serif Bold'"
         d="m 524.14932,-143.26539 -0.83387,2.72194 -4.18818,-1.28305 q -0.51131,-0.15664 -1.03122,-0.25834 -0.52743,-0.10401 -0.8072,-0.0499 -0.32428,0.0651 -0.54194,0.31924 -0.21536,0.24657 -0.37431,0.76539 -0.11287,0.36844 -0.11004,0.78878 0.005,0.41281 0.1324,0.93707 l 5.98526,1.83359 -0.82926,2.70691 -8.44404,-2.58685 0.82926,-2.7069 0.93238,0.28563 q -0.3428,-0.8946 -0.44086,-1.64843 -0.0957,-0.76135 0.15303,-1.57342 0.41924,-1.36849 1.45123,-1.89127 1.03429,-0.53031 2.62084,-0.0443 z" />
      <path
         id="path1877"
         style="font-style:normal;font-variant:normal;font-weight:bold;font-stretch:normal;font-size:16.1057px;font-family:sans-serif;-inkscape-font-specification:'sans-serif Bold'"
         d="m 522.08971,-155.49882 q 2.14094,0.40202 3.14247,1.88634 0.99524,1.47514 0.57145,3.73202 -0.42379,2.25687 -1.88783,3.27821 -1.47031,1.01216 -3.61125,0.61013 -2.1564,-0.40492 -3.15019,-1.88779 -0.99235,-1.4906 -0.57146,-3.73201 0.4267,-2.27234 1.89556,-3.27676 1.47031,-1.01216 3.61125,-0.61014 z m 1.46708,3.82018 q -0.28155,-0.33293 -0.72062,-0.5514 -0.44535,-0.22766 -1.27235,-0.38295 -0.76518,-0.14368 -1.30915,-0.1018 -0.54397,0.0419 -0.89957,0.23116 -0.36333,0.18782 -0.56004,0.51095 -0.1967,0.32314 -0.27217,0.72505 -0.0755,0.4019 -0.0268,0.73911 0.0502,0.32948 0.32107,0.67641 0.25354,0.31166 0.75009,0.56494 0.49799,0.24554 1.29408,0.39503 0.71107,0.13352 1.26132,0.10082 0.54252,-0.0342 0.9073,-0.2297 0.34788,-0.19073 0.55086,-0.50468 0.20443,-0.32169 0.28716,-0.76224 0.0711,-0.37872 0.0113,-0.74202 -0.0661,-0.37248 -0.32252,-0.66868 z" />
      <path
         id="path1879"
         style="font-style:normal;font-variant:normal;font-weight:bold;font-stretch:normal;font-size:16.1057px;font-family:sans-serif;-inkscape-font-specification:'sans-serif Bold'"
         d="m 526.87862,-159.54733 -0.29499,2.81567 -12.16995,-1.27499 0.29499,-2.81567 z" />
      <path
         id="path1881"
         style="font-style:normal;font-variant:normal;font-weight:bold;font-stretch:normal;font-size:16.1057px;font-family:sans-serif;-inkscape-font-specification:'sans-serif Bold'"
         d="m 522.95949,-171.33749 q 2.17779,0.05 3.40648,1.35251 1.22101,1.29448 1.16832,3.5902 -0.0527,2.29571 -1.33199,3.54067 -1.28698,1.23692 -3.46476,1.18693 -2.19351,-0.0503 -3.41434,-1.35268 -1.22065,-1.31021 -1.16832,-3.5902 0.053,-2.31144 1.33985,-3.54049 1.28698,-1.23692 3.46476,-1.18694 z m 2.0664,3.53215 q -0.33175,-0.28293 -0.80041,-0.42741 -0.47633,-0.15253 -1.31757,-0.17183 -0.77834,-0.0179 -1.30835,0.11156 -0.53,0.12942 -0.85026,0.37379 -0.32812,0.24419 -0.46989,0.59491 -0.14178,0.35073 -0.15116,0.75955 -0.009,0.40883 0.0933,0.7337 0.10285,0.31701 0.42637,0.61548 0.30067,0.26649 0.83168,0.436 0.53119,0.16165 1.34098,0.18023 0.72331,0.0166 1.26099,-0.10478 0.52983,-0.12156 0.85813,-0.37361 0.31239,-0.24455 0.46185,-0.58723 0.14963,-0.35055 0.15992,-0.79868 0.009,-0.38524 -0.10901,-0.73406 -0.12554,-0.35686 -0.42656,-0.60762 z" />
      <path
         id="path1883"
         style="font-style:normal;font-variant:normal;font-weight:bold;font-stretch:normal;font-size:16.1057px;font-family:sans-serif;-inkscape-font-specification:'sans-serif Bold'"
         d="m 525.51175,-181.75297 q 1.23774,-0.10891 2.11482,0.16917 0.87707,0.27807 1.41077,0.87057 0.54153,0.5918 0.83231,1.47408 0.29793,0.87376 0.39719,2.00183 0.0806,0.91656 0.0496,1.81927 -0.0318,0.89488 -0.13125,1.55887 l -2.20131,0.1937 -0.0303,-0.34469 q 0.15819,-0.53496 0.25721,-1.29365 0.10686,-0.75938 0.0552,-1.34692 -0.0689,-0.78338 -0.26051,-1.25598 -0.18444,-0.48113 -0.47354,-0.71621 -0.27205,-0.22079 -0.67339,-0.296 -0.40134,-0.0752 -0.94971,-0.027 l -0.16451,0.0145 q 0.46,0.47267 0.7573,1.07017 0.2973,0.59751 0.36417,1.35739 0.16267,1.84879 -0.8615,2.9494 -1.02418,1.10061 -3.29599,1.30051 -1.08891,0.0958 -1.90701,-0.14009 -0.8181,-0.2359 -1.45458,-0.7404 -0.59386,-0.46878 -0.96555,-1.19395 -0.37239,-0.733 -0.44201,-1.52422 -0.0627,-0.71288 0.0586,-1.30775 0.11282,-0.60201 0.36845,-1.10607 l -0.40065,-0.0674 -0.24057,-2.73401 z m -1.51447,2.97527 -3.98743,0.35086 q -0.0805,0.25181 -0.10429,0.60916 -0.0317,0.35804 -0.007,0.64005 0.0979,1.11241 0.78919,1.61209 0.68348,0.50037 1.82723,0.39973 1.26908,-0.11167 1.72909,-0.62581 0.45931,-0.52198 0.37729,-1.45421 -0.0372,-0.42303 -0.20624,-0.81867 -0.16902,-0.39564 -0.41801,-0.7132 z" />
      <path
         id="path1885"
         style="font-style:normal;font-variant:normal;font-weight:bold;font-stretch:normal;font-size:16.1057px;font-family:sans-serif;-inkscape-font-specification:'sans-serif Bold'"
         d="m 522.28463,-187.79654 -5.99179,-0.86494 -0.56564,-2.85421 12.79507,2.46697 0.59621,3.00849 -3.51204,-0.73104 -7.93315,5.07561 -0.57786,-2.91592 z" />
    </g>
  </g>
</svg>
