<?xml version="1.0" encoding="UTF-8"?> <!-- Generator: Adobe Illustrator 22.1.0, SVG Export Plug-In . SVG Version: 6.00 Build 0) --> <svg xmlns="http://www.w3.org/2000/svg" xmlns:xlink="http://www.w3.org/1999/xlink" id="Splitface" x="0px" y="0px" viewBox="0 0 252.6 73.8" style="enable-background:new 0 0 252.6 73.8;" xml:space="preserve"> <style type="text/css"> .st0{fill:#FFCD00;} .st1{stroke:#000000;stroke-width:0.25;} .st2{fill:#CE0E2D;} </style> <g> <path class="st0" d="M58.1,70.1c-0.5,0-0.9,0.4-0.9,0.9c0,0.5,0.4,0.9,0.9,0.9c0.5,0,0.9-0.4,0.9-0.9C59,70.5,58.6,70.1,58.1,70.1z M58.6,71.7h-0.3L58,71.2h-0.2v0.5h-0.3v-1.4h0.6c0.2,0,0.4,0.2,0.4,0.4c0,0.2-0.1,0.3-0.3,0.4L58.6,71.7z"></path> <path class="st0" d="M58.2,70.6h-0.3v0.3h0.3c0.1,0,0.1-0.1,0.1-0.1C58.3,70.7,58.2,70.6,58.2,70.6z"></path> <path class="st0" d="M31.9,0.5c-0.3,1-0.2,1.7-0.2,1.7s0.9-0.8,2.1-1.1c0,0-2.2,2.4-2.5,5.6l1.1,2c0,0,0.8-0.8,2.2-1.2 c0,0-3.8,4.4-2.9,9.3l-1.4-0.8c0,0,2.1,3,1.6,5.8L31,21c0,0,0.8,2.5,0.5,6c-1.1,0.5-0.8-1.1-2.2-1.1c-2.3,0-3.6,4-4.8,4 c-1.3,0-1.5-2.4-5.6-2.4c-1.9,0-3.6,0.8-3.6,1.2c0,0.4,1.7-0.1,3.1-0.1c3.7,0,4,2,6.3,2c2.4,0,3.3-2.9,4.7-2.9 c0.2,0,0.4,0.1,0.4,0.4c0,0.5-0.6,0.4-0.6,1.5c0,0.7,0.3,1.3,0.9,1.3c0.6,0,1.6-1.1,1.3-3.1l0.3-0.1c0,0,0.9,1.5,0.7,3.2l0.2,0.1 c1.7-1.6,0.1-3.3,1-3.3c1.5,0,0.9,3.3,4.9,3.3c2,0,2.7-1.7,6.7-1.7c7.5,0,8,7.2,8,7.2s-1.6-0.6-4.2-0.3c0,0-0.4-1.5-1.4-2.6 c0,0-0.4,2.1-2.4,3l-2.5,0c0,0-2.6-1.4-2.5-3.2c0,0-0.9,1.1-0.1,2.9l-0.7,0.3c0,0-2.5-4.1-8.8-3.2l-0.1,0.6c0,0,4-0.6,5.4,2.5 c0,0-2.3-0.6-4.8,0.2c0,0,3.3-0.1,6.1,1.3c0,0-3.6,0.1-5.6,3.6h-0.8c0,0-1.9-3.7-6.1-3.7c-5.8,0-7.1,6.4-7.1,6.4l0.4,0.3 c0,0,0.5-2.8,2.8-4.3l0.6,0.1c-1.8,1.1-4.9,6.8,1.4,9.9l0.5,1c0,0-1.4,3.9-1.6,5.6c3.1,0.7,5.5-1.2,8.4-1.2c3.1,0,5.2,2.9,15.6,1.8 c-3.5,4.7-12.2,1.1-15,1.1c-1.8,0-5.8,1.1-8.4,0.7l1.2,1.4c9.1-1.5,11.9,1.1,15.8,0.4l-0.4,0.5c0,0-7.1,0.9-7.1,10.7 c0,0-0.8-0.8-1.7-1c0,0,0.4,1,0.4,2.2h29.8V0.5H31.9z M28.6,55c0.6-3.5-2.4-6.3-2.4-6.3c1.7-3.6-1.2-5.4-3.1-5.4 c-1.9,0-2.9,1.7-2.9,1.7s-0.1-4.7,4.5-4.7c3.7,0,5.5,4.3,4,6.6C32.2,53.6,28.6,55,28.6,55z M35.8,43.9c-2,0-3,1.5-3,1.5 c-0.4-0.9,0.5-4.8,4.5-4.8c5.6,0,5.1,7.6,2.7,7.6C38.7,48.2,39.8,43.9,35.8,43.9z M42,52c-0.3-1.2-1.6-2.2-1.6-2.2s2-1.4,2.4-3.2 C43.5,49.6,42,52,42,52z M46,54.6c0.6-1,0.9-1.7,0.2-2.7c0,0,2.6-0.9,3.7-4.5C50.6,54,46,54.6,46,54.6z M58.1,72.2 c-0.7,0-1.2-0.5-1.2-1.2c0-0.7,0.5-1.2,1.2-1.2c0.7,0,1.2,0.5,1.2,1.2C59.3,71.7,58.7,72.2,58.1,72.2z"></path> <path class="st0" d="M44.9,32.3c-0.6-1-2.2-0.9-2.2-0.9c-0.2,0.5,0,0.9,0,0.9C44,32.1,44.9,32.3,44.9,32.3z"></path> <path class="st0" d="M21.2,32.7c0,1.8-1.8,2.9-1.8,2.9c0,0,0.6,0.4,1.9,0.3C22.3,33.7,21.2,32.7,21.2,32.7z"></path> <path class="st0" d="M13.9,33.5c0,0-0.6,0.9,0.2,2.3c0,0,0.7,0.1,1.6-0.2C14.3,34.7,13.9,33.5,13.9,33.5z"></path> <path class="st0" d="M18,32.1c-0.4,0,0,0.7,0,0.7c0.5,0.1,1.2-0.1,1.2-0.1S18.6,32.1,18,32.1z"></path> <path class="st0" d="M13.3,47.8c0,0-2.6-6.4,2.2-10.1C12.3,37.1,8,43.3,13.3,47.8z"></path> <path class="st0" d="M19.1,38.4c0,0,1.3-0.9,2.5-1.4l-0.3-0.5c0,0-1.4,0.3-2.9,1.2L19.1,38.4z"></path> </g> <g> <path class="st1" d="M86.1,12.8c-1.4-1.1-3.1-1.6-5.3-1.6c-0.4,0-1,0-1.6,0.1c-1.3,0.1-2.3,0.2-2.9,0.2c-0.4,0-1,0-1.6-0.1 c-0.3-0.1-0.6-0.1-0.8-0.1c-0.4,0-0.6,0.1-0.6,0.4c0,0.2,0.1,0.3,0.4,0.3c1,0.1,1.7,0.5,2,1.1c0.3,0.6,0.4,2,0.4,4.3V27 c0,2.1-0.1,3.6-0.4,4.4c-0.3,0.8-0.9,1.3-1.7,1.4c-0.3,0-0.5,0.2-0.5,0.4c0,0.2,0.1,0.3,0.4,0.3c0.2,0,0.5,0,0.9-0.1 c0.3,0,0.8-0.1,1.4-0.1l1.2,0l1.1,0c0.8,0,1.3,0,1.6,0c0.5,0,0.9,0.1,1.1,0.1c0.4,0,0.6-0.1,0.6-0.4c0-0.2-0.2-0.3-0.5-0.3 c-0.3,0-0.7-0.1-1.3-0.2c-0.8-0.2-1.3-1-1.4-2.3l0-1.3l0-1.6V13.9l0-0.5c0-0.4,0.1-0.8,0.2-0.9c0.2-0.2,0.4-0.2,0.9-0.2 c1.8,0,3.3,0.5,4.5,1.6c1.2,1.1,1.8,2.4,1.8,4c0,1.4-0.5,2.5-1.4,3.4c-0.9,0.8-2.1,1.3-3.6,1.3c-0.5,0-0.9,0-1.2-0.1 c-0.1,0-0.2,0-0.3,0c-0.2,0-0.3,0.1-0.3,0.2c0,0.2,0.2,0.3,0.8,0.5c0.6,0.1,1.2,0.2,1.8,0.2c1.4,0,2.7-0.4,4-1.4 c1.7-1.2,2.5-2.9,2.5-5C88.2,15.2,87.5,13.8,86.1,12.8z"></path> <path class="st1" d="M95.8,32.8l-0.7-0.1c-0.5-0.1-0.9-0.2-1-0.5c-0.2-0.3-0.2-0.8-0.2-1.5V19.9c0-0.2-0.1-0.4-0.2-0.4l-0.8,0.4 c-0.9,0.5-1.7,0.8-2.2,1c-0.5,0.2-0.8,0.3-0.8,0.5c0,0.2,0.2,0.3,0.6,0.3c0.6,0,0.9,0.1,1.1,0.4c0.2,0.3,0.3,0.8,0.3,1.7v7 c0,0.6-0.1,1.1-0.2,1.4c-0.1,0.3-0.4,0.5-0.7,0.6l-0.3,0.1c-0.2,0.1-0.3,0.2-0.3,0.3c0,0.2,0.1,0.3,0.4,0.3c0.1,0,0.3,0,0.6,0 c0.1,0,0.3,0,0.5,0l1.2-0.1l1,0c0.5,0,0.8,0,1.1,0c0.5,0.1,0.8,0.1,1,0.1c0.3,0,0.4-0.1,0.4-0.3C96.3,33,96.2,32.8,95.8,32.8z"></path> <path class="st1" d="M92.7,16.5c0.2,0,0.5-0.2,0.9-0.7c0.4-0.4,0.5-0.8,0.5-1c0-0.1-0.1-0.3-0.2-0.4l-0.4-0.6 c-0.3-0.4-0.5-0.6-0.8-0.6c-0.2,0-0.5,0.2-0.9,0.7c-0.4,0.4-0.6,0.8-0.6,1c0,0.2,0.2,0.6,0.5,1C92.2,16.3,92.5,16.5,92.7,16.5z"></path> <path class="st1" d="M102.2,33.7c0.7,0,1.5-0.2,2.3-0.6c0.8-0.4,1.2-0.8,1.2-1.1c0-0.1-0.1-0.2-0.2-0.2l-0.1,0l-0.8,0.4 c-0.4,0.2-1,0.4-1.6,0.4c-0.8,0-1.4-0.2-1.8-0.7c-0.3-0.3-0.4-1-0.4-2v-8.1h3.7c0.3,0,0.6-0.2,0.7-0.5l0.4-0.9 c0.1-0.2,0.1-0.4,0.1-0.4c0-0.1,0-0.2-0.2-0.2c-0.1,0-0.2,0.1-0.3,0.2c-0.3,0.2-0.6,0.3-1.1,0.3h-3.4l0.1-2.8 c0-0.3-0.1-0.4-0.2-0.4c-0.1,0-0.3,0.2-0.6,0.7c-0.7,1.1-1.6,2.1-2.8,3.2c-0.3,0.2-0.4,0.4-0.4,0.6c0,0.2,0.1,0.2,0.4,0.2h1.4v8.1 C98.6,32.4,99.8,33.7,102.2,33.7z"></path> <path class="st1" d="M107.4,21.8h1.4v8.1c0,2.6,1.2,3.8,3.6,3.8c0.7,0,1.5-0.2,2.3-0.6c0.8-0.4,1.2-0.8,1.2-1.1 c0-0.1-0.1-0.2-0.2-0.2l-0.1,0l-0.8,0.4c-0.4,0.2-1,0.4-1.6,0.4c-0.8,0-1.4-0.2-1.8-0.7c-0.3-0.3-0.4-1-0.4-2v-8.1h3.7 c0.3,0,0.6-0.2,0.7-0.5l0.4-0.9c0.1-0.2,0.1-0.4,0.1-0.4c0-0.1,0-0.2-0.2-0.2c-0.1,0-0.2,0.1-0.3,0.2c-0.3,0.2-0.6,0.3-1.1,0.3 h-3.4l0.1-2.8c0-0.3-0.1-0.4-0.2-0.4c-0.1,0-0.3,0.2-0.6,0.7c-0.7,1.1-1.6,2.1-2.8,3.2c-0.3,0.2-0.4,0.4-0.4,0.6 C107,21.7,107.1,21.8,107.4,21.8z"></path> <path class="st1" d="M126,29.3c0-1-0.3-1.8-0.8-2.3c-0.5-0.6-1.4-1.1-2.7-1.7c-1.3-0.5-2.2-1-2.6-1.3c-0.4-0.4-0.7-0.8-0.7-1.4 c0-0.6,0.2-1,0.6-1.4c0.4-0.4,0.9-0.6,1.5-0.6c1.6,0,2.7,0.8,3.2,2.4c0.1,0.3,0.2,0.4,0.4,0.4c0.2,0,0.4-0.2,0.4-0.6 c0-0.2,0-0.4,0-0.6l-0.1-0.6c0-0.2,0-0.3,0-0.5v-0.3c0-0.2-0.1-0.4-0.4-0.5l-0.7-0.2c-0.6-0.2-1.3-0.3-2.1-0.3 c-1.2,0-2.2,0.4-3,1.1c-0.8,0.7-1.2,1.6-1.2,2.6c0,0.9,0.3,1.6,0.8,2.2c0.5,0.6,1.4,1.2,2.7,1.7l1.4,0.6c1.2,0.5,1.8,1.4,1.8,2.4 c0,0.7-0.2,1.3-0.7,1.8c-0.5,0.5-1.1,0.7-1.9,0.7c-0.9,0-1.7-0.3-2.3-1c-0.6-0.7-1.1-1.6-1.3-2.8c-0.1-0.3-0.2-0.5-0.4-0.5 c-0.2,0-0.3,0.2-0.4,0.4l0,0.5l0,2l0,0.7c0,0.2,0.2,0.4,0.4,0.4l0.4,0c0.1,0,0.2,0.1,0.5,0.2c1,0.5,2,0.8,2.8,0.8 c1.2,0,2.3-0.4,3.1-1.3C125.6,31.6,126,30.5,126,29.3z"></path> <path class="st1" d="M140.1,21.6c-1-1.2-2.4-1.8-4-1.8c-0.8,0-1.6,0.1-2.3,0.4c-0.7,0.3-1.5,0.8-2.5,1.6V10.1 c0-0.3-0.1-0.5-0.3-0.5c-0.1,0-0.2,0-0.3,0.1c-1.1,0.7-2.3,1.1-3.5,1.4c-0.3,0.1-0.5,0.2-0.5,0.4c0,0.1,0,0.2,0.1,0.2l0.1,0l1-0.1 c0.1,0,0.3,0.1,0.5,0.2c0.2,0.2,0.4,0.3,0.4,0.5c0.2,0.4,0.3,1.1,0.3,2.4v16c0,0.8,0,1.4-0.1,1.8c-0.1,0.3-0.1,0.6-0.1,0.7 c0,0.3,0.1,0.4,0.3,0.4c0.2,0,0.4-0.3,0.7-0.9c0.3-0.6,0.5-0.9,0.6-0.9c0.1,0,0.2,0,0.4,0.2c1.3,1,2.7,1.6,4.3,1.6 c1.8,0,3.3-0.7,4.6-2.2c1.2-1.5,1.9-3.2,1.9-5.3C141.7,24.3,141.2,22.8,140.1,21.6z M138.9,31.5c-0.8,1-1.9,1.5-3.2,1.5 c-0.8,0-1.6-0.2-2.4-0.7c-0.8-0.5-1.3-1.1-1.6-1.7l-0.2-1.1l0-0.6v-5.1c0-0.7,0.2-1.2,0.5-1.6c0.8-0.8,1.8-1.3,2.9-1.3 c1.4,0,2.6,0.7,3.6,2c1.1,1.3,1.6,2.8,1.6,4.6C140,29.2,139.7,30.5,138.9,31.5z"></path> <path class="st1" d="M149.6,33.7c1.7,0,3.2-0.8,4.4-2.4l0,0.6c0,1,0.2,1.5,0.5,1.5c0.1,0,0.3,0,0.6-0.1c0.2-0.1,0.6-0.1,1.3-0.1 l1-0.1c0.6,0,0.9-0.2,0.9-0.4c0-0.2-0.1-0.2-0.4-0.2l-0.2,0h-0.3c-0.5,0-0.9-0.1-1.1-0.4c-0.2-0.3-0.3-0.8-0.3-1.6V20.1 c0-0.4-0.1-0.6-0.3-0.6c-0.1,0-0.2,0-0.4,0.1c-0.5,0.2-0.9,0.2-1.2,0.3l-1.1,0l-0.5,0c-0.4,0-0.6,0.1-0.6,0.4 c0,0.2,0.2,0.3,0.5,0.3c0.6,0,0.9,0.1,1.1,0.3c0.2,0.2,0.3,0.6,0.3,1.3v7.7c0,0.7-0.4,1.3-1.1,1.9c-0.7,0.6-1.5,0.8-2.5,0.8 c-0.7,0-1.4-0.2-2-0.7c-0.6-0.5-1-1-1.2-1.7l-0.3-1.9v-0.5l0.1-7.2v-0.2c0-0.5-0.1-0.8-0.4-0.8c-0.1,0-0.2,0-0.3,0.1 c-0.5,0.1-0.9,0.2-1.2,0.2l-1.2,0c-0.6,0-1,0.1-1,0.3c0,0.2,0.1,0.3,0.4,0.3c0.6,0,1,0.2,1.2,0.4c0.2,0.2,0.3,0.6,0.3,1.1v5.3 l0,1.1c0,1.7,0.4,2.9,1.2,3.9C147,33.2,148.2,33.7,149.6,33.7z"></path> <path class="st1" d="M165.1,22.8c0.4-0.5,1-0.7,1.6-0.7c0.4,0,0.8,0.2,1.3,0.5c0.4,0.3,0.6,0.4,0.7,0.4c0.1,0,0.4-0.2,0.7-0.7 c0.3-0.4,0.5-0.7,0.5-0.9c0-0.2-0.3-0.6-0.8-1c-0.5-0.4-1-0.6-1.3-0.6c-1,0-2.1,1-3.4,2.9v-2.4l0-0.3c0-0.4-0.1-0.6-0.4-0.5 c-0.1,0-0.2,0.1-0.4,0.1c-1.3,0.8-2.5,1.3-3.5,1.4c-0.1,0-0.3,0-0.3,0c-0.2,0.1-0.2,0.2-0.2,0.3c0,0.2,0.1,0.3,0.4,0.3l0.5,0 c1.2,0,1.7,0.6,1.7,1.8v6.9c0,0.9-0.1,1.6-0.2,1.8c-0.1,0.3-0.4,0.5-0.9,0.6c-0.3,0.1-0.5,0.2-0.5,0.4c0,0.2,0.1,0.3,0.4,0.3 c0.1,0,0.3,0,0.6-0.1c0.3-0.1,0.9-0.1,1.8-0.1h0.7l1.1,0c0.4,0,0.7,0,0.9,0c0.4,0.1,0.7,0.1,0.7,0.1c0.3,0,0.4-0.1,0.4-0.3 c0-0.2-0.2-0.3-0.5-0.3l-0.8-0.1c-0.6-0.1-1-0.3-1.2-0.6c-0.2-0.4-0.4-1-0.4-1.9v-5.7C164.4,23.8,164.6,23.2,165.1,22.8z"></path> <path class="st1" d="M181.7,22.8c0.4-0.1,0.7-0.4,0.9-0.7c0.1-0.2,0.3-0.7,0.4-1.3c0.2-0.6,0.2-1,0.2-1.2c0-0.3-0.1-0.4-0.3-0.4 c-0.1,0-0.2,0.1-0.3,0.2l-0.2,0.6c-0.1,0.3-0.4,0.5-0.8,0.8c-0.5,0.3-0.9,0.4-1.3,0.4c-0.2,0-0.4-0.1-0.8-0.4c-1-0.6-2.1-1-3.4-1 c-1.4,0-2.5,0.5-3.5,1.4c-0.9,0.9-1.4,2.1-1.4,3.5c0,1.8,0.7,3.1,2.1,4c-1.2,0.9-1.8,1.9-1.8,3.2c0,0.7,0.4,1.3,1.1,1.8v0.1 c-1.5,0.5-2.3,1.4-2.3,2.6c0,1,0.5,1.7,1.6,2.3c1,0.6,2.4,0.9,4.1,0.9c1.7,0,3.2-0.4,4.4-1.3c1.2-0.9,1.8-1.9,1.8-3.1 c0-1.1-0.4-1.8-1.3-2.3c-0.9-0.4-2.3-0.7-4.4-0.7c-1.4,0-2.4-0.1-2.9-0.3c-0.6-0.2-0.9-0.6-0.9-1.2c0-0.4,0.2-0.8,0.5-1.2 c0.3-0.4,0.6-0.6,1-0.6c0.1,0,0.3,0,0.5,0.1c0.7,0.1,1.3,0.2,1.9,0.2c1.3,0,2.4-0.5,3.4-1.4c1-0.9,1.5-2,1.5-3.2c0-0.6,0-1-0.1-1.4 c0-0.1,0-0.2,0-0.3C181.4,22.9,181.5,22.8,181.7,22.8z M173.5,34c0.5,0.2,1.1,0.3,1.9,0.3l1.7,0.1c0.9,0.1,1.5,0.1,1.7,0.1 c1.5,0,2.2,0.5,2.2,1.5c0,0.8-0.5,1.5-1.4,2.1c-1,0.6-2.2,0.8-3.6,0.8c-1.2,0-2.2-0.2-2.9-0.7c-0.7-0.5-1-1.2-1-2 C172,35.2,172.5,34.5,173.5,34z M178.8,27.6c-0.5,0.7-1.2,1-2.1,1c-0.9,0-1.7-0.4-2.2-1.3c-0.6-0.9-0.9-1.9-0.9-3.3 c0-1,0.3-1.9,0.8-2.6c0.5-0.7,1.2-1.1,2-1.1c0.9,0,1.7,0.4,2.3,1.3c0.6,0.9,0.9,1.9,0.9,3.2C179.5,26,179.3,26.9,178.8,27.6z"></path> <path class="st1" d="M204.2,31.8c1.4-1.3,2.1-2.9,2.1-4.9c0-2.9-1.9-5.1-5.8-6.4c-2-0.7-3.2-1.1-3.7-1.4c-0.5-0.3-1-0.7-1.4-1.2 c-0.5-0.7-0.7-1.4-0.7-2.3c0-1,0.4-1.9,1.1-2.5c0.8-0.7,1.7-1,2.8-1c1.4,0,2.7,0.4,3.9,1.1c1.2,0.8,1.9,1.7,2.3,2.9 c0.2,0.5,0.3,0.8,0.5,0.8c0.2,0,0.3-0.2,0.3-0.5c0-0.1,0-0.3-0.1-0.7l-0.3-1.7c-0.1-0.9-0.2-1.4-0.2-1.6c0-0.5-0.1-0.8-0.4-0.8 c-0.1,0-0.1,0-0.2,0.1l-0.2,0.2c-0.1,0.1-0.3,0.2-0.4,0.2c-0.1,0-0.2,0-0.3-0.1l-1.1-0.5c-0.8-0.3-1.7-0.5-2.8-0.5 c-2,0-3.6,0.5-4.9,1.6c-1.3,1.1-1.9,2.5-1.9,4.2c0,1.6,0.5,2.8,1.5,3.8c1,1,2.6,1.9,4.9,2.7c2.3,0.8,3.6,1.4,4.1,1.8 c0.9,0.8,1.4,1.8,1.4,3c0,1.2-0.5,2.3-1.5,3.2c-1,0.9-2.2,1.3-3.7,1.3c-1.4,0-2.7-0.5-4-1.4c-1.2-0.9-2-2-2.4-3.3 c-0.1-0.5-0.3-0.8-0.5-0.8c-0.2,0-0.3,0.1-0.3,0.5c0,0.4,0.1,1.1,0.4,2.1c0.2,0.9,0.4,1.4,0.4,1.5c0.1,0.6,0.2,1,0.3,1.1 c0.1,0.1,0.2,0.3,0.4,0.4c0.4,0.3,1.2,0.6,2.1,0.8c1,0.2,1.9,0.4,2.7,0.4C200.9,33.7,202.7,33.1,204.2,31.8z"></path> <path class="st1" d="M217.1,32c0-0.1-0.1-0.2-0.2-0.2l-0.1,0l-0.8,0.4c-0.4,0.2-1,0.4-1.6,0.4c-0.8,0-1.4-0.2-1.8-0.7 c-0.3-0.3-0.4-1-0.4-2v-8.1h3.7c0.3,0,0.6-0.2,0.7-0.5l0.4-0.9c0.1-0.2,0.1-0.4,0.1-0.4c0-0.1,0-0.2-0.2-0.2 c-0.1,0-0.2,0.1-0.3,0.2c-0.3,0.2-0.6,0.3-1.1,0.3h-3.4l0.1-2.8c0-0.3-0.1-0.4-0.2-0.4c-0.1,0-0.3,0.2-0.6,0.7 c-0.7,1.1-1.6,2.1-2.8,3.2c-0.3,0.2-0.4,0.4-0.4,0.6c0,0.2,0.1,0.2,0.4,0.2h1.4v8.1c0,2.6,1.2,3.8,3.6,3.8c0.7,0,1.5-0.2,2.3-0.6 C216.7,32.7,217.1,32.3,217.1,32z"></path> <path class="st1" d="M230.4,32.5c-0.1,0-0.2,0-0.4,0.1c-0.1,0-0.2,0-0.4,0c-0.6,0-1-0.2-1.2-0.6c-0.2-0.4-0.4-1.1-0.4-2.1v-6.3 c0-1.2-0.4-2.1-1.2-2.7c-0.8-0.6-1.9-1-3.3-1c-1.6,0-2.8,0.5-3.8,1.6c-0.7,0.8-1.1,1.5-1.1,2.1c0,0.3,0.2,0.5,0.6,0.7 c0.4,0.2,0.8,0.3,1.3,0.3c0.2,0,0.3-0.1,0.3-0.3c0-0.2,0-0.3-0.1-0.5c-0.1-0.5-0.2-0.9-0.2-1.2c0-1.2,0.7-1.8,2.1-1.8 c1,0,1.8,0.3,2.5,1c0.5,0.5,0.7,1.3,0.7,2.5v2c-2.6,0.4-4.5,1-5.6,1.6c-1.1,0.7-1.7,1.6-1.7,2.9c0,0.9,0.3,1.6,0.9,2.2 c0.6,0.5,1.4,0.8,2.3,0.8c1.3,0,2.7-0.6,4.2-1.8c0.7,1.1,1.5,1.6,2.3,1.6c0.5,0,0.9-0.1,1.4-0.3c0.5-0.2,0.7-0.4,0.7-0.6 C230.7,32.5,230.6,32.5,230.4,32.5z M225.9,30c0,0.8-0.2,1.4-0.5,1.8c-0.6,0.6-1.3,0.9-2.2,0.9c-0.7,0-1.3-0.2-1.7-0.6 c-0.4-0.4-0.6-1-0.6-1.7c0-0.9,0.4-1.7,1.3-2.3c0.9-0.6,2.1-1,3.8-1.1V30z"></path> <path class="st1" d="M240,31.8L240,31.8l-0.9,0.4c-0.4,0.2-1,0.4-1.6,0.4c-0.8,0-1.4-0.2-1.8-0.7c-0.3-0.3-0.4-1-0.4-2v-8.1h3.7 c0.3,0,0.6-0.2,0.7-0.5l0.4-0.9c0.1-0.2,0.1-0.4,0.1-0.4c0-0.1,0-0.2-0.2-0.2c-0.1,0-0.2,0.1-0.3,0.2c-0.3,0.2-0.6,0.3-1.1,0.3 h-3.4l0.1-2.8c0-0.3-0.1-0.4-0.2-0.4c-0.1,0-0.3,0.2-0.6,0.7c-0.7,1.1-1.6,2.1-2.8,3.2c-0.3,0.2-0.4,0.4-0.4,0.6 c0,0.2,0.1,0.2,0.4,0.2h1.4v8.1c0,2.6,1.2,3.8,3.6,3.8c0.7,0,1.5-0.2,2.3-0.6c0.8-0.4,1.2-0.8,1.2-1.1 C240.2,31.8,240.1,31.8,240,31.8z"></path> <path class="st1" d="M252.3,30.5c-0.1,0-0.2,0-0.2,0.1c-1.3,1-2.6,1.6-3.7,1.6c-1.5,0-2.7-0.6-3.7-1.9c-1-1.2-1.5-2.8-1.5-4.6 l0-0.4h6l1.1,0l1.2,0c0.7,0,1-0.2,1-0.5c0-0.2-0.1-0.7-0.4-1.3c-0.3-0.6-0.5-1.1-0.8-1.5c-1-1.5-2.5-2.2-4.2-2.2 c-1.6,0-3,0.7-4.2,2.1c-1.2,1.4-1.8,3-1.8,4.9c0,2,0.6,3.6,1.7,4.9c1.2,1.3,2.6,2,4.3,2c1.5,0,3-0.5,4.3-1.6c0.7-0.6,1.1-1,1.1-1.4 C252.5,30.5,252.4,30.5,252.3,30.5z M244.3,21.6c0.6-0.7,1.3-1.1,2.1-1.1c0.8,0,1.6,0.4,2.3,1.1c0.7,0.7,1.1,1.5,1.1,2.3 c0,0.3-0.4,0.5-1.2,0.5h-5.3C243.4,23.2,243.8,22.3,244.3,21.6z"></path> <path class="st1" d="M95.9,44.1c-0.1,0-0.3,0-0.7,0c-0.3,0-1,0-2.2,0c-0.6,0-1,0-1.4-0.1c-0.4-0.1-0.8-0.1-1-0.1 c-0.2,0-0.3,0.1-0.3,0.3c0,0.2,0.2,0.3,0.5,0.3c0.9,0.1,1.5,0.4,1.9,1c0.4,0.6,0.6,1.6,0.6,2.9v8.3c0,2.8-0.6,4.9-1.9,6.3 c-1.2,1.4-3.1,2.1-5.6,2.1c-2.8,0-4.8-0.8-6-2.5c-0.8-1.2-1.3-3.1-1.3-5.9v-8.1l0-1.1c0-1,0.1-1.8,0.3-2.2c0.2-0.4,0.6-0.7,1.2-0.8 c0.3-0.1,0.5-0.2,0.5-0.4c0-0.2-0.1-0.2-0.4-0.2c-0.1,0-0.4,0-0.8,0c-0.5,0-0.8,0.1-0.9,0.1h-1.2l-1.2,0c-0.2,0-0.6,0-1.1,0 c-0.5,0-0.8,0-1.1,0c-0.4,0-0.6,0.1-0.6,0.4c0,0.2,0.1,0.3,0.4,0.3c0.9,0.1,1.6,0.4,1.9,0.9c0.3,0.4,0.5,1.2,0.5,2.4l0,0.9v8.2 c0,2.2,0.4,4.1,1.1,5.4c0.7,1.2,1.7,2.2,3.1,2.9c1.4,0.7,3,1.1,4.8,1.1c1.5,0,3-0.3,4.3-0.9c1.3-0.6,2.4-1.4,3.1-2.4 c1.1-1.6,1.7-3.8,1.7-6.7v-7.9c0-1.3,0.1-2.3,0.3-2.7c0.2-0.5,0.6-0.9,1.2-1.1c0.2-0.1,0.3-0.2,0.3-0.4 C96.2,44.2,96.1,44.1,95.9,44.1z"></path> <path class="st1" d="M113.5,65.6l-0.7-0.1c-0.8-0.1-1.2-0.5-1.3-1.2l0-0.8l0-0.5v-3.8c0-2-0.3-3.4-1-4.4c-1-1.4-2.3-2.1-4-2.1 c-1.5,0-3,0.9-4.4,2.6v-1.8c0-0.2,0-0.4,0-0.6c0-0.3-0.1-0.5-0.3-0.5c-0.1,0-0.2,0-0.4,0.1c-0.1,0-0.3,0.1-0.6,0.3l-0.8,0.4 c-0.7,0.3-1.3,0.5-2,0.7c-0.3,0.1-0.4,0.2-0.4,0.3c0,0.1,0,0.2,0.1,0.2c0.1,0,0.2,0.1,0.3,0.1l0.7,0c0.5,0,0.8,0.1,1,0.4 c0.2,0.3,0.3,0.8,0.3,1.5v7.2c0,0.6-0.1,1.1-0.3,1.3c-0.2,0.3-0.5,0.5-1.1,0.7c-0.2,0.1-0.3,0.2-0.3,0.3c0,0.2,0.1,0.3,0.3,0.3 c0.1,0,0.3,0,0.6-0.1c0.3,0,1.3-0.1,3-0.1c0.8,0,1.3,0,1.5,0c0.4,0.1,0.6,0.1,0.8,0.1c0.2,0,0.4-0.1,0.4-0.3c0-0.2-0.2-0.3-0.5-0.3 c-1.4-0.1-2.1-0.6-2.2-1.5l0-0.8l0-0.5v-6.1c0-0.7,0.3-1.3,1-1.8c0.7-0.5,1.5-0.8,2.3-0.8c1.2,0,2.2,0.4,2.9,1.2c0.7,0.8,1,2,1,3.4 v5.5c0,0.7-0.2,1-0.6,1.2l-0.5,0.1c-0.2,0-0.3,0.1-0.3,0.3c0,0.1,0,0.2,0.1,0.2l0.2,0l0.5,0h0.6l1.6,0c0.9,0,1.6,0,1.9,0.1 c0.3,0,0.5,0.1,0.6,0.1c0.4,0,0.5-0.1,0.5-0.3C113.9,65.8,113.7,65.7,113.5,65.6z"></path> <path class="st1" d="M118.7,46.1c-0.2,0-0.5,0.2-0.9,0.7c-0.4,0.4-0.6,0.8-0.6,1c0,0.2,0.2,0.6,0.5,1c0.3,0.4,0.6,0.6,0.8,0.6 c0.2,0,0.5-0.2,0.9-0.7c0.4-0.4,0.5-0.8,0.5-1c0-0.1-0.1-0.3-0.2-0.4l-0.4-0.6C119.3,46.3,119,46.1,118.7,46.1z"></path> <path class="st1" d="M121.7,65.7l-0.7-0.1c-0.5-0.1-0.9-0.2-1-0.5c-0.2-0.3-0.2-0.8-0.2-1.5V52.8c0-0.2-0.1-0.4-0.2-0.4l-0.8,0.4 c-0.9,0.5-1.7,0.8-2.2,1c-0.5,0.2-0.8,0.3-0.8,0.5c0,0.2,0.2,0.3,0.6,0.3c0.6,0,0.9,0.1,1.1,0.4c0.2,0.3,0.3,0.8,0.3,1.7v7 c0,0.6-0.1,1.1-0.2,1.4c-0.1,0.3-0.4,0.5-0.7,0.6l-0.3,0.1c-0.2,0.1-0.3,0.2-0.3,0.3c0,0.2,0.1,0.3,0.4,0.3c0.1,0,0.3,0,0.6,0 c0.1,0,0.3,0,0.5,0l1.2-0.1l1,0c0.5,0,0.8,0,1.1,0c0.5,0,0.8,0.1,1,0.1c0.3,0,0.4-0.1,0.4-0.3C122.3,65.9,122.1,65.7,121.7,65.7z"></path> <path class="st1" d="M136.3,53.1c-0.1,0-0.3,0-0.6,0c-0.4,0-1.1,0-2.1,0c-0.5,0-0.9,0-1.1,0c-0.3,0-0.4,0-0.6,0 c-0.3,0-0.4,0.1-0.4,0.3c0,0.2,0.1,0.3,0.4,0.3c1,0.2,1.5,0.6,1.5,1.4c0,0.8-0.3,1.8-0.8,3l-2.7,5.7l-3.5-8.1 c-0.2-0.4-0.3-0.8-0.3-1.1c0-0.5,0.5-0.8,1.4-0.9c0.3,0,0.4-0.1,0.4-0.3c0-0.2-0.1-0.3-0.4-0.3c-0.1,0-0.4,0-0.7,0 c-0.3,0-0.7,0-1.3,0c-1.4,0-2.3,0-2.9-0.1c-0.2,0-0.3,0-0.4,0c-0.3,0-0.5,0.1-0.5,0.3c0,0.1,0.1,0.2,0.3,0.3 c0.7,0.3,1.3,0.9,1.7,1.9l4.6,10.6c0.1,0.3,0.3,0.5,0.6,0.5c0.2,0,0.4-0.1,0.5-0.4l5.1-10.9c0.4-0.8,0.8-1.3,1.2-1.5 c0.4-0.2,0.7-0.3,0.7-0.5C136.6,53.2,136.5,53.1,136.3,53.1z"></path> <path class="st1" d="M147.9,63.3c-0.1,0-0.2,0-0.2,0.1c-1.3,1-2.6,1.6-3.7,1.6c-1.4,0-2.7-0.6-3.7-1.9c-1-1.2-1.5-2.8-1.5-4.6 l0-0.4h6l1.1,0l1.2,0c0.7,0,1-0.2,1-0.5c0-0.2-0.1-0.7-0.4-1.3c-0.3-0.6-0.5-1.1-0.8-1.5c-1-1.5-2.4-2.2-4.2-2.2 c-1.6,0-3,0.7-4.2,2.1c-1.2,1.4-1.8,3-1.8,4.9c0,2,0.6,3.6,1.7,4.9c1.2,1.3,2.6,2,4.3,2c1.5,0,3-0.5,4.3-1.6c0.7-0.6,1.1-1,1.1-1.4 C148.1,63.4,148.1,63.3,147.9,63.3z M140,54.4c0.6-0.7,1.3-1.1,2.1-1.1c0.8,0,1.6,0.4,2.3,1.1c0.7,0.7,1.1,1.5,1.1,2.3 c0,0.3-0.4,0.5-1.2,0.5h-5.3C139,56.1,139.4,55.1,140,54.4z"></path> <path class="st1" d="M158.7,53.3c-0.5-0.4-1-0.6-1.3-0.6c-1,0-2.1,1-3.4,2.9v-2.4l0-0.3c0-0.4-0.1-0.6-0.4-0.5 c-0.1,0-0.2,0.1-0.4,0.1c-1.3,0.8-2.5,1.3-3.5,1.4c-0.1,0-0.3,0-0.3,0c-0.2,0.1-0.2,0.2-0.2,0.3c0,0.2,0.1,0.3,0.4,0.3l0.5,0 c1.2,0,1.7,0.6,1.7,1.8v6.9c0,0.9-0.1,1.6-0.2,1.8c-0.1,0.3-0.4,0.5-0.9,0.6c-0.3,0.1-0.5,0.2-0.5,0.4c0,0.2,0.1,0.3,0.4,0.3 c0.1,0,0.3,0,0.6-0.1c0.4-0.1,0.9-0.1,1.8-0.1h0.7l1.1,0c0.4,0,0.7,0,0.9,0c0.4,0.1,0.7,0.1,0.7,0.1c0.3,0,0.4-0.1,0.4-0.3 c0-0.2-0.2-0.3-0.5-0.3l-0.8-0.1c-0.6-0.1-1-0.3-1.2-0.7c-0.2-0.4-0.4-1-0.4-1.9v-5.7c0-0.7,0.2-1.3,0.6-1.8c0.4-0.5,1-0.7,1.6-0.7 c0.4,0,0.8,0.2,1.3,0.5c0.4,0.3,0.6,0.4,0.7,0.4c0.1,0,0.4-0.2,0.7-0.7c0.3-0.4,0.5-0.7,0.5-0.9C159.6,54,159.3,53.7,158.7,53.3z"></path> <path class="st1" d="M166,58.2c-1.3-0.5-2.2-1-2.6-1.3c-0.4-0.4-0.7-0.8-0.7-1.4c0-0.6,0.2-1,0.6-1.4c0.4-0.4,0.9-0.6,1.5-0.6 c1.6,0,2.7,0.8,3.2,2.4c0.1,0.3,0.2,0.4,0.4,0.4c0.2,0,0.4-0.2,0.4-0.6c0-0.2,0-0.4-0.1-0.6l-0.1-0.6c0-0.1,0-0.3,0-0.4v-0.3 c0-0.2-0.1-0.4-0.4-0.5l-0.7-0.2c-0.6-0.2-1.3-0.3-2.1-0.3c-1.2,0-2.2,0.4-3,1.1c-0.8,0.7-1.2,1.6-1.2,2.6c0,0.9,0.3,1.6,0.8,2.2 c0.5,0.6,1.4,1.2,2.7,1.7l1.4,0.6c1.2,0.5,1.8,1.4,1.8,2.4c0,0.7-0.2,1.3-0.7,1.8c-0.5,0.5-1.1,0.7-1.9,0.7c-0.9,0-1.7-0.3-2.3-1 c-0.6-0.7-1.1-1.6-1.3-2.8c-0.1-0.3-0.2-0.5-0.4-0.5c-0.2,0-0.3,0.2-0.4,0.4l0,0.5l0,2l0,0.7c0,0.2,0.2,0.4,0.4,0.4l0.4,0.1 c0.1,0,0.2,0.1,0.5,0.2c1,0.5,2,0.8,2.8,0.8c1.2,0,2.3-0.4,3.1-1.3c0.9-0.9,1.3-1.9,1.3-3.1c0-1-0.3-1.8-0.8-2.3 C168.2,59.3,167.3,58.7,166,58.2z"></path> <path class="st1" d="M177.6,65.7l-0.7-0.1c-0.5-0.1-0.9-0.2-1-0.5c-0.2-0.3-0.2-0.8-0.2-1.5V52.8c0-0.2-0.1-0.4-0.2-0.4l-0.8,0.4 c-0.9,0.5-1.7,0.8-2.2,1c-0.5,0.2-0.8,0.3-0.8,0.5c0,0.2,0.2,0.3,0.6,0.3c0.6,0,0.9,0.1,1.1,0.4c0.2,0.3,0.2,0.8,0.2,1.7v7 c0,0.6-0.1,1.1-0.2,1.4c-0.1,0.3-0.4,0.5-0.7,0.6l-0.3,0.1c-0.2,0.1-0.3,0.2-0.3,0.3c0,0.2,0.1,0.3,0.4,0.3c0.1,0,0.3,0,0.6,0 c0.1,0,0.3,0,0.5,0l1.2-0.1l1,0c0.5,0,0.8,0,1.1,0c0.5,0,0.8,0.1,1,0.1c0.3,0,0.4-0.1,0.4-0.3C178.1,65.9,178,65.7,177.6,65.7z"></path> <path class="st1" d="M174.6,46.1c-0.2,0-0.5,0.2-0.9,0.7c-0.4,0.4-0.6,0.8-0.6,1c0,0.2,0.2,0.6,0.5,1c0.3,0.4,0.6,0.6,0.8,0.6 c0.2,0,0.5-0.2,0.9-0.7c0.4-0.4,0.5-0.8,0.5-1c0-0.1-0.1-0.3-0.2-0.4l-0.4-0.6C175.1,46.3,174.9,46.1,174.6,46.1z"></path> <path class="st1" d="M187.3,64.7L187.3,64.7l-0.9,0.4c-0.4,0.2-1,0.4-1.6,0.4c-0.8,0-1.4-0.2-1.8-0.7c-0.3-0.3-0.4-1-0.4-2v-8.1 h3.7c0.3,0,0.6-0.2,0.7-0.5l0.4-0.9c0.1-0.2,0.1-0.4,0.1-0.4c0-0.1,0-0.2-0.2-0.2c-0.1,0-0.2,0.1-0.3,0.2c-0.3,0.2-0.6,0.3-1.1,0.3 h-3.4l0.1-2.8c0-0.3-0.1-0.4-0.2-0.4c-0.1,0-0.3,0.2-0.6,0.7c-0.6,1.1-1.6,2.1-2.8,3.2c-0.3,0.2-0.4,0.4-0.4,0.6 c0,0.2,0.1,0.2,0.4,0.2h1.4v8.1c0,2.6,1.2,3.8,3.6,3.8c0.7,0,1.5-0.2,2.3-0.6c0.8-0.4,1.2-0.8,1.2-1.1 C187.5,64.7,187.5,64.7,187.3,64.7z"></path> <path class="st1" d="M201.4,53.1c-0.1,0-0.3,0-0.7,0c-0.3,0-0.9,0-1.6,0c-0.7,0-1.2,0-1.4,0c-0.3,0-0.5,0-0.6,0 c-0.2,0-0.3,0.1-0.3,0.3c0,0.2,0.1,0.3,0.4,0.3c0.7,0.2,1.1,0.4,1.3,0.6c0.2,0.2,0.3,0.6,0.3,1.1c0,0.5-0.1,1.2-0.4,1.9l-2.4,6.6 l-3.1-7.5c-0.3-0.8-0.5-1.4-0.5-1.8c0-0.4,0.3-0.7,0.9-0.8c0.6-0.1,0.8-0.2,0.8-0.4c0-0.2-0.1-0.3-0.4-0.3c-0.1,0-0.3,0-0.6,0 c-0.4,0-1.1,0-2.1,0c-0.8,0-1.3,0-1.6,0c-0.3,0-0.6,0-0.8,0c-0.3,0-0.5,0.1-0.5,0.3c0,0.1,0.1,0.2,0.3,0.3c0.4,0.1,0.7,0.3,0.9,0.5 c0.2,0.2,0.4,0.7,0.7,1.3l4,9.4c0.4,1,0.6,1.6,0.6,1.9c0,0.6-0.3,1.4-0.8,2.5c-0.6,1-1.2,1.9-1.9,2.6c-0.1,0.1-0.2,0.2-0.2,0.3 c0,0.2,0.4,0.2,1.1,0.2c0.6,0,1,0,1.1-0.1c0.1,0,0.2-0.2,0.3-0.5l0.2-0.5l5.6-16c0.2-0.5,0.4-0.9,0.5-1.1c0.2-0.2,0.5-0.4,0.9-0.5 c0.2-0.1,0.3-0.2,0.3-0.4C201.7,53.1,201.6,53.1,201.4,53.1z"></path> <path class="st2" d="M40.4,49.8c0,0,1.3,1,1.6,2.2c0,0,1.5-2.4,0.8-5.4C42.4,48.4,40.4,49.8,40.4,49.8z"></path> <path class="st2" d="M46.2,51.9c0.7,1,0.5,1.7-0.2,2.7c0,0,4.5-0.5,3.8-7.2C48.9,51,46.2,51.9,46.2,51.9z"></path> <path class="st2" d="M57.8,71.2H58l0.3,0.5h0.3l-0.3-0.6c0.2-0.1,0.3-0.2,0.3-0.4c0-0.2-0.2-0.4-0.4-0.4h-0.6v1.4h0.3V71.2z M57.8,70.6h0.3c0.1,0,0.1,0.1,0.1,0.1c0,0.1-0.1,0.1-0.1,0.1h-0.3V70.6z"></path> <path class="st2" d="M24.8,40.3c-4.6,0-4.5,4.7-4.5,4.7s1-1.7,2.9-1.7c1.9,0,4.8,1.8,3.1,5.4c0,0,3,2.9,2.4,6.3 c0,0,3.6-1.4,0.1-8.1C30.2,44.7,28.4,40.3,24.8,40.3z"></path> <path class="st2" d="M37.3,40.6c-4,0-4.9,3.9-4.5,4.8c0,0,1-1.5,3-1.5c4,0,2.8,4.3,4.2,4.3C42.4,48.2,42.9,40.6,37.3,40.6z"></path> <path class="st2" d="M60.8,0H0v73.8h60.8V0z M13.3,47.8c-5.3-4.6-1-10.7,2.2-10.1C10.7,41.5,13.3,47.8,13.3,47.8z M14.1,35.9 c-0.8-1.5-0.2-2.3-0.2-2.3s0.5,1.1,1.8,2.1C14.8,36,14.1,35.9,14.1,35.9z M60.3,73.3H30.5c-0.1-1.2-0.4-2.2-0.4-2.2 c0.9,0.2,1.7,1,1.7,1c0-9.7,7.1-10.7,7.1-10.7l0.4-0.5c-3.9,0.7-6.7-1.8-15.8-0.4l-1.2-1.4c2.6,0.4,6.6-0.7,8.4-0.7 c2.9,0,11.5,3.6,15-1.1c-10.3,1.1-12.5-1.8-15.6-1.8c-2.9,0-5.3,1.9-8.4,1.2c0.1-1.7,1.6-5.6,1.6-5.6l-0.5-1 c-6.3-3.1-3.2-8.8-1.4-9.9l-0.6-0.1c-2.3,1.4-2.8,4.3-2.8,4.3L17.6,44c0,0,1.3-6.4,7.1-6.4c4.2,0,6.1,3.7,6.1,3.7h0.8 c2-3.4,5.6-3.6,5.6-3.6c-2.7-1.4-6.1-1.3-6.1-1.3c2.5-0.8,4.8-0.2,4.8-0.2c-1.4-3.1-5.4-2.5-5.4-2.5l0.1-0.6 c6.3-0.9,8.8,3.2,8.8,3.2l0.7-0.3c-0.8-1.8,0.1-2.9,0.1-2.9c-0.1,1.8,2.5,3.2,2.5,3.2l2.5,0c2-0.9,2.4-3,2.4-3 c1,1.1,1.4,2.6,1.4,2.6c2.7-0.3,4.2,0.3,4.2,0.3s-0.5-7.2-8-7.2c-4.1,0-4.7,1.7-6.7,1.7c-4,0-3.4-3.3-4.9-3.3c-0.9,0,0.7,1.8-1,3.3 l-0.2-0.1c0.2-1.7-0.7-3.2-0.7-3.2l-0.3,0.1c0.3,2-0.7,3.1-1.3,3.1c-0.6,0-0.9-0.6-0.9-1.3c0-1.1,0.6-1.1,0.6-1.5 c0-0.2-0.2-0.4-0.4-0.4c-1.4,0-2.3,2.9-4.7,2.9c-2.3,0-2.6-2-6.3-2c-1.4,0-3.1,0.4-3.1,0.1c0-0.5,1.7-1.2,3.6-1.2 c4.1,0,4.2,2.4,5.6,2.4c1.2,0,2.5-4,4.8-4c1.4,0,1.1,1.6,2.2,1.1c0.3-3.6-0.5-6-0.5-6l1,0.8c0.5-2.8-1.6-5.8-1.6-5.8l1.4,0.8 c-0.9-4.9,2.9-9.3,2.9-9.3c-1.4,0.4-2.2,1.2-2.2,1.2l-1.1-2c0.3-3.2,2.5-5.6,2.5-5.6c-1.3,0.3-2.1,1.1-2.1,1.1s-0.1-0.7,0.2-1.7 h28.4V73.3z M21.3,36.6l0.3,0.5c-1.2,0.5-2.5,1.4-2.5,1.4l-0.7-0.6C19.9,36.8,21.3,36.6,21.3,36.6z M19.4,35.6c0,0,1.8-1.2,1.8-2.9 c0,0,1.1,1,0,3.3C19.9,36,19.4,35.6,19.4,35.6z M18,32.8c0,0-0.3-0.7,0-0.7c0.6,0,1.2,0.6,1.2,0.6S18.5,32.8,18,32.8z M42.7,31.4 c0,0,1.7-0.1,2.2,0.9c0,0-0.9-0.2-2.3,0C42.6,32.3,42.4,31.9,42.7,31.4z"></path> <path class="st2" d="M58.1,72.2c0.7,0,1.2-0.5,1.2-1.2c0-0.7-0.5-1.2-1.2-1.2c-0.7,0-1.2,0.5-1.2,1.2 C56.9,71.7,57.4,72.2,58.1,72.2z M58.1,70.1c0.5,0,0.9,0.4,0.9,0.9c0,0.5-0.4,0.9-0.9,0.9c-0.5,0-0.9-0.4-0.9-0.9 C57.2,70.5,57.6,70.1,58.1,70.1z"></path> </g> </svg> 