<svg width="489" height="55" viewBox="0 0 489 55" fill="none" xmlns="http://www.w3.org/2000/svg">
    <g clip-path="url(#clip0_6601_77937)">
        <path d="M73.11 12.71C67.64 12.71 63.04 15.43 63.04 20.68C63.04 25.93 67.07 27.81 70.82 28.46L74.38 29.09C77.35 29.61 80.07 30.67 80.07 33.74C80.07 36.81 77.68 38.72 73.54 38.72C69.4 38.72 66.25 36.84 65.98 32.27H62.17C62.36 39.04 67.69 42.06 73.52 42.06C79.35 42.06 83.8 39.01 83.8 33.71C83.8 28.41 79.8 26.5 75.66 25.79L72.1 25.16C69.27 24.67 66.77 23.61 66.77 20.64C66.77 17.67 69.25 16.04 73.08 16.04C76.91 16.04 79.53 17.65 79.75 21.32H83.56C83.32 15.44 78.58 12.69 73.11 12.69V12.71Z" fill="white"/>
        <path d="M91.1 41.5V28.71H103.62V41.5H107.37V13.31H103.62V25.34H91.1V13.31H87.35V41.5H91.1Z" fill="white"/>
        <path d="M125.27 12.71C116.7 12.71 110.71 18.59 110.71 27.4C110.71 36.21 116.7 42.09 125.27 42.09C133.84 42.09 139.83 36.21 139.83 27.4C139.83 18.59 133.84 12.71 125.27 12.71ZM125.27 16.06C131.34 16.06 136.04 20.22 136.04 27.41C136.04 34.6 131.33 38.76 125.27 38.76C118.82 38.76 114.5 34.6 114.5 27.41C114.53 20.23 118.83 16.06 125.27 16.06Z" fill="white"/>
        <path d="M146.96 41.5V29.36H154.2C159.48 29.36 163.02 26.42 163.02 21.33C163.02 16.24 159.51 13.3 154.2 13.3H143.21V41.49H146.96V41.5ZM146.96 16.68H153.82C157.25 16.68 159.26 18.1 159.26 21.33C159.26 24.56 157.25 25.98 153.82 25.98H146.96V16.67V16.68Z" fill="white"/>
        <path d="M185.95 21.53C185.95 16.06 182.22 13.31 176.94 13.31H165.73V41.5H169.48V29.74H175.63L180.77 41.5H184.58V40.71L179.44 29.53C183.39 28.77 185.94 26.1 185.94 21.53H185.95ZM176.56 16.69C180.18 16.69 182.19 18.11 182.19 21.53C182.19 24.95 180.18 26.37 176.56 26.37H169.51V16.66H176.56V16.69Z" fill="white"/>
        <path d="M189.16 32.85C189.16 39.03 192.67 42.02 199.04 42.02C205.41 42.02 208.92 39.03 208.92 32.85V13.31H205.16V32.65C205.16 37.36 202.58 38.64 199.06 38.64C195.54 38.64 192.97 37.36 192.97 32.65V13.31H189.22V32.85H189.17H189.16Z" fill="white"/>
        <path d="M217.54 41.5V17.34C217.54 17.15 217.62 17.01 217.81 17.01C218 17.01 218.14 17.04 218.19 17.25L227.2 41.49H234.06V13.31H230.3V37.47C230.3 37.66 230.22 37.8 230.03 37.8C229.84 37.8 229.7 37.77 229.65 37.55L220.64 13.31H213.78V41.5H217.53H217.54Z" fill="white"/>
        <path d="M242.9 41.5V17.34C242.9 17.15 242.98 17.01 243.17 17.01C243.36 17.01 243.5 17.04 243.55 17.25L252.58 41.49H259.44V13.31H255.69V37.47C255.69 37.66 255.61 37.8 255.42 37.8C255.23 37.8 255.09 37.77 255.04 37.55L246.03 13.31H239.17V41.5H242.9Z" fill="white"/>
        <path d="M282.57 41.5V38.13H268.28V28.5H281.01V25.13H268.28V16.67H282.37V13.3H264.52V41.52H282.56L282.57 41.5Z" fill="white"/>
        <path d="M306.27 21.53C306.27 16.06 302.54 13.31 297.26 13.31H286.05V41.5H289.8V29.74H295.95L301.09 41.5H304.9V40.71L299.76 29.53C303.71 28.77 306.26 26.1 306.26 21.53H306.27ZM296.88 16.69C300.5 16.69 302.51 18.11 302.51 21.53C302.51 24.95 300.5 26.37 296.88 26.37H289.83V16.66H296.88V16.69Z" fill="white"/>
        <path d="M7.95003 32.41L22.99 10.61C23.4 10.01 24.38 10.39 24.24 11.1L22.01 23.21C21.93 23.67 22.42 24.05 22.88 23.84L39.64 15.92C40.1 15.7 40.32 15.18 40.18 14.72C37.66 6.91001 29.5 -0.189994 19.73 5.53881e-06C8.38003 0.190006 0.540029 8.79001 0.0300294 18.07C-0.299971 23.57 2.26003 28.46 6.75003 32.54C7.10003 32.87 7.68003 32.78 7.95003 32.4V32.41ZM32.79 22.29L17.74 44.11C17.33 44.71 16.35 44.33 16.49 43.62L18.69 31.48C18.77 31.02 18.28 30.64 17.82 30.86L1.06003 38.78C0.600029 39 0.380029 39.51 0.520029 39.98C3.02003 47.79 11.21 54.89 20.98 54.7C32.33 54.51 40.19 45.91 40.71 36.63C41.04 31.13 38.45 26.24 33.99 22.16C33.64 21.83 33.06 21.92 32.79 22.3V22.29Z" fill="white"/>
        <path d="M336.44 41.85C335.11 41.85 333.94 41.56 332.93 40.98C331.92 40.4 331.16 39.59 330.64 38.56L330.54 41.43H327.9V17.58H330.8V27.86C331.36 26.81 332.16 25.99 333.2 25.39C334.24 24.8 335.44 24.5 336.79 24.5C338.25 24.5 339.55 24.88 340.69 25.64C341.83 26.4 342.73 27.44 343.38 28.75C344.04 30.06 344.36 31.53 344.36 33.17C344.36 34.81 344.02 36.28 343.33 37.58C342.64 38.89 341.7 39.93 340.51 40.69C339.32 41.45 337.96 41.83 336.43 41.83L336.44 41.85ZM336.02 39.37C337.09 39.37 338.03 39.11 338.82 38.58C339.62 38.05 340.24 37.33 340.69 36.4C341.14 35.47 341.37 34.4 341.37 33.18C341.37 31.96 341.15 30.88 340.71 29.96C340.27 29.04 339.65 28.31 338.86 27.78C338.06 27.25 337.14 26.99 336.09 26.99C335.04 26.99 334.06 27.25 333.24 27.76C332.41 28.27 331.77 29 331.31 29.92C330.85 30.85 330.62 31.93 330.62 33.18C330.62 34.43 330.85 35.48 331.31 36.4C331.77 37.32 332.41 38.05 333.23 38.58C334.05 39.11 334.98 39.37 336.03 39.37H336.02Z" fill="white"/>
        <path d="M348.69 46.33C349.31 46.33 349.82 46.22 350.22 45.99C350.62 45.76 350.99 45.35 351.33 44.75C351.67 44.15 352.07 43.3 352.52 42.2L352.81 41.52L345.65 24.92H348.87L354.29 38.39L359.51 24.92H362.57L355.22 42.52C354.58 44.07 353.96 45.3 353.38 46.21C352.8 47.12 352.15 47.78 351.43 48.19C350.71 48.6 349.83 48.8 348.8 48.8C347.77 48.8 346.96 48.6 346.38 48.19L346.7 45.84C347.19 46.16 347.85 46.32 348.67 46.32L348.69 46.33Z" fill="white"/>
        <path d="M488.23 38.13C488.23 36.51 487.08 35.32 485.49 35.32C483.9 35.32 482.75 36.51 482.75 38.13C482.75 39.75 483.91 40.94 485.49 40.94C487.07 40.94 488.23 39.75 488.23 38.13ZM484.77 38.27V40.11H484.17V36.05H485.65C486.51 36.05 486.91 36.43 486.91 37.17C486.91 37.62 486.6 37.98 486.21 38.04V38.06C486.55 38.11 486.68 38.42 486.75 38.98C486.8 39.34 486.88 39.97 487 40.12H486.3C486.14 39.74 486.15 39.2 486.03 38.75C485.92 38.41 485.74 38.28 485.35 38.28H484.77V38.27ZM485.51 37.75C486.09 37.75 486.25 37.44 486.25 37.17C486.25 36.85 486.09 36.59 485.51 36.59H484.77V37.74H485.51V37.75ZM482.1 38.13C482.1 36.13 483.69 34.77 485.49 34.77C487.29 34.77 488.88 36.12 488.88 38.13C488.88 40.14 487.29 41.49 485.49 41.49C483.69 41.49 482.1 40.14 482.1 38.13Z" fill="white"/>
        <path d="M470.53 32.26L478.67 23.1H469.13L465.82 26.89L462.38 23.1H444.23V20.65H452.81V13.31H429.7V24.84H429.63C428.17 23.16 426.34 22.58 424.23 22.58C419.89 22.58 416.62 25.54 415.48 29.45C414.17 25.15 410.8 22.5 405.8 22.5C401.73 22.5 398.53 24.33 396.86 27.31V23.6H388.46V19.59H397.62V13.31H380.97V41.49H388.46V29.64H395.93C395.71 30.51 395.58 31.44 395.58 32.43C395.58 38.31 400.07 42.43 405.8 42.43C410.62 42.43 413.79 40.17 415.47 36.04H409.06C408.19 37.28 407.53 37.65 405.8 37.65C403.79 37.65 402.05 35.9 402.05 33.81H415.12C415.69 38.48 419.32 42.5 424.31 42.5C426.46 42.5 428.44 41.44 429.64 39.65H429.71V41.47H462.15L465.53 37.65L468.94 41.47H478.8L470.55 32.24L470.53 32.26ZM402.25 29.73C402.67 27.94 404.05 26.77 405.79 26.77C407.7 26.77 409.02 27.9 409.36 29.73C409.51 29.73 402.25 29.73 402.25 29.73ZM425.69 37.2C423.26 37.2 421.75 34.93 421.75 32.57C421.75 30.04 423.06 27.61 425.69 27.61C428.32 27.61 429.5 30.04 429.5 32.57C429.5 34.97 428.35 37.2 425.69 37.2ZM451.35 40.12H436.92V14.68H451.44V19.29H442.86V24.47H451.35V28.76H442.77V35.59H451.35V40.12ZM444.32 34.04V30.31H452.9V23.59L460.65 32.3L452.9 41.01V34.05H444.32V34.04ZM465.51 35.61L461.52 40.12H455.7L462.66 32.29L455.7 24.46H461.77L465.84 28.94L469.75 24.46H475.63L468.7 32.25L475.73 40.11H469.54L465.52 35.6L465.51 35.61Z" fill="white"/>
    </g>
    <defs>
        <clipPath id="clip0_6601_77937">
            <rect width="488.88" height="54.7" fill="white"/>
        </clipPath>
    </defs>
</svg>
